<?xml version="1.0" encoding="UTF-8"?>
<svg version="1.1" xmlns="http://www.w3.org/2000/svg" width="89" height="91">
<path d="M0 0 C1.21913086 -0.0309375 1.21913086 -0.0309375 2.46289062 -0.0625 C14.71305709 -0.14046446 24.81289232 5.08129018 33.734375 13.15234375 C42.00310996 21.49879239 45.40268186 30.88982243 45.60864258 42.55224609 C45.59341553 43.73125488 45.57818848 44.91026367 45.5625 46.125 C45.55436279 47.35428223 45.54622559 48.58356445 45.5378418 49.85009766 C45.17199923 62.76853856 41.25329118 70.63173169 32.8125 80.25 C23.33174766 88.90633909 13.79976649 92.16559733 1.0625 92 C-0.79822144 91.9834436 -0.79822144 91.9834436 -2.6965332 91.96655273 C-12.39750316 91.67637186 -19.36572393 90.3310918 -27.1875 84.25 C-28.03828125 83.59773438 -28.8890625 82.94546875 -29.765625 82.2734375 C-37.18564843 75.71335056 -43.52971865 64.9826777 -44.38037109 54.98266602 C-44.88570558 39.43520822 -44.38054222 26.23343927 -33.1875 14.25 C-23.73003002 4.36685133 -13.464426 0.08343564 0 0 Z " fill="#010301" transform="translate(44.1875,-0.25)"/>
<path d="M0 0 C1.32 0 2.64 0 4 0 C4.0986019 4.14127969 3.74031023 7.92829375 3 12 C3 12.66 3 13.32 3 14 C6.24732932 12.37633534 6.70155136 9.24612161 8 6 C8.66 6 9.32 6 10 6 C10.33 4.35 10.66 2.7 11 1 C12.65 0.67 14.3 0.34 16 0 C15.67 2.64 15.34 5.28 15 8 C13.68 8 12.36 8 11 8 C11.0825 8.7425 11.165 9.485 11.25 10.25 C11 13 11 13 9.125 15.3125 C7 17 7 17 5 17 C5.33 18.32 5.66 19.64 6 21 C8.64 21.33 11.28 21.66 14 22 C14 23.65 14 25.3 14 27 C11.69 27.99 9.38 28.98 7 30 C6.58219121 32.37305578 6.58219121 32.37305578 7 35 C7.825 35.495 8.65 35.99 9.5 36.5 C10.325 36.995 11.15 37.49 12 38 C12.3125 40.6875 12.3125 40.6875 12 43 C11.443125 42.71125 10.88625 42.4225 10.3125 42.125 C7.91505355 40.9586747 5.48403061 39.9660119 3 39 C3.33 40.051875 3.66 41.10375 4 42.1875 C4.83966782 45.38873357 5.19750904 47.7411008 5 51 C4.01 51 3.02 51 2 51 C2 48.69 2 46.38 2 44 C0.02 44.495 0.02 44.495 -2 45 C-2.16435547 45.92232422 -2.16435547 45.92232422 -2.33203125 46.86328125 C-2.56986328 48.07564453 -2.56986328 48.07564453 -2.8125 49.3125 C-2.96332031 50.11300781 -3.11414063 50.91351563 -3.26953125 51.73828125 C-4.08500756 54.26320524 -4.91953671 55.38069734 -7 57 C-7.66 57 -8.32 57 -9 57 C-9 54.03 -9 51.06 -9 48 C-13.29425875 49.07356469 -13.74740471 49.5084773 -16 53 C-17.32 52.67 -18.64 52.34 -20 52 C-18.87548273 49.0280615 -17.77706209 46.66559313 -16 44 C-16 43.01 -16 42.02 -16 41 C-20.455 41.495 -20.455 41.495 -25 42 C-24.57724773 36.6099085 -23.50505091 34.05271512 -20 30 C-19.22166466 27.81785432 -19.22166466 27.81785432 -19 26 C-20.65 26 -22.3 26 -24 26 C-24 24.68 -24 23.36 -24 22 C-22.02 22 -20.04 22 -18 22 C-17.13149826 19.75124253 -17.13149826 19.75124253 -17 17 C-18.30745749 15.31295807 -19.64172029 13.64639965 -21 12 C-21.25 9.1875 -21.25 9.1875 -21 7 C-18.13275314 7.57344937 -17.1385485 7.8614515 -15 10 C-14.01 10 -13.02 10 -12 10 C-11.34 7.69 -10.68 5.38 -10 3 C-9.01 3.33 -8.02 3.66 -7 4 C-6.67 5.65 -6.34 7.3 -6 9 C-5.34 9 -4.68 9 -4 9 C-2.68 6.03 -1.36 3.06 0 0 Z " fill="#00F300" transform="translate(50,16)"/>
<path d="M0 0 C-0.33 2.64 -0.66 5.28 -1 8 C-2.32 8 -3.64 8 -5 8 C-4.9175 8.7425 -4.835 9.485 -4.75 10.25 C-5 13 -5 13 -6.875 15.3125 C-9 17 -9 17 -11 17 C-11.33 18.32 -11.66 19.64 -12 21 C-12.50610724 14.92671312 -11.04157942 11.22771463 -8 6 C-7.34 6 -6.68 6 -6 6 C-5.814375 4.7934375 -5.814375 4.7934375 -5.625 3.5625 C-5.41875 2.716875 -5.2125 1.87125 -5 1 C-3 0 -3 0 0 0 Z " fill="#1B3E1B" transform="translate(66,16)"/>
<path d="M0 0 C1.32 0 2.64 0 4 0 C5.4783226 2.95664519 5.06032783 5.74229737 5 9 C3.35 8.67 1.7 8.34 0 8 C0 5.36 0 2.72 0 0 Z " fill="#166116" transform="translate(54,70)"/>
<path d="M0 0 C2 3 2 3 1.625 5.6875 C1.41875 6.450625 1.2125 7.21375 1 8 C-0.32 8.33 -1.64 8.66 -3 9 C-3.33 8.01 -3.66 7.02 -4 6 C-2.0625 2.8125 -2.0625 2.8125 0 0 Z " fill="#02C402" transform="translate(34,60)"/>
<path d="M0 0 C-0.53851991 3.87734333 -1.56125452 5.97595561 -4 9 C-4.69580267 10.31836295 -5.37224433 11.64791086 -6 13 C-6.17673419 8.4932782 -6.13551182 5.03374456 -4 1 C-2 0 -2 0 0 0 Z " fill="#01A601" transform="translate(60,24)"/>
<path d="M0 0 C1.98 0.99 3.96 1.98 6 3 C6 4.65 6 6.3 6 8 C3.04590299 6.62845496 0.55991624 5.01136276 -2 3 C-1.34 3 -0.68 3 0 3 C0 2.01 0 1.02 0 0 Z " fill="#02BE02" transform="translate(56,51)"/>
<path d="M0 0 C0 3.11227195 -0.45627049 5.94152152 -1 9 C-1.33 7.68 -1.66 6.36 -2 5 C-3.65 5 -5.3 5 -7 5 C-7 3.68 -7 2.36 -7 1 C-5.5459375 1.0309375 -5.5459375 1.0309375 -4.0625 1.0625 C-1.12534105 1.35618499 -1.12534105 1.35618499 0 0 Z " fill="#00B800" transform="translate(33,37)"/>
<path d="M0 0 C1.65 0 3.3 0 5 0 C5 1.65 5 3.3 5 5 C3.0625 5.5625 3.0625 5.5625 1 6 C0 5 0 5 -0.0625 2.4375 C-0.041875 1.633125 -0.02125 0.82875 0 0 Z " fill="#01D101" transform="translate(16,38)"/>
<path d="M0 0 C0.99 0 1.98 0 3 0 C2.67 2.31 2.34 4.62 2 7 C0.68 6.67 -0.64 6.34 -2 6 C-1.125 1.125 -1.125 1.125 0 0 Z " fill="#00D100" transform="translate(63,16)"/>
<path d="M0 0 C0.33 0 0.66 0 1 0 C2.29243536 4.1196377 3.26252625 7.66831683 3 12 C2.01 12 1.02 12 0 12 C0 9.69 0 7.38 0 5 C-1.32 4.67 -2.64 4.34 -4 4 C-2.68 4 -1.36 4 0 4 C0 2.68 0 1.36 0 0 Z " fill="#00BF00" transform="translate(52,55)"/>
<path d="M0 0 C2.475 0.495 2.475 0.495 5 1 C5 2.65 5 4.3 5 6 C3.68 5.67 2.36 5.34 1 5 C0.67 3.35 0.34 1.7 0 0 Z " fill="#00D100" transform="translate(66,59)"/>
<path d="M0 0 C1.32 0 2.64 0 4 0 C4 2.31 4 4.62 4 7 C4.99 7.33 5.98 7.66 7 8 C5.68 8 4.36 8 3 8 C2.87625 7.195625 2.7525 6.39125 2.625 5.5625 C2.41875 4.716875 2.2125 3.87125 2 3 C1.34 2.67 0.68 2.34 0 2 C-0.33 3.65 -0.66 5.3 -1 7 C-2 4 -2 4 -1.0625 1.8125 C-0.5365625 0.9153125 -0.5365625 0.9153125 0 0 Z " fill="#135F13" transform="translate(48,60)"/>
<path d="M0 0 C2.125 0.375 2.125 0.375 4 1 C4 3.31 4 5.62 4 8 C3.67 8 3.34 8 3 8 C2.67 6.35 2.34 4.7 2 3 C1.34 3 0.68 3 0 3 C-0.33 4.98 -0.66 6.96 -1 9 C-1.33 9 -1.66 9 -2 9 C-2.125 5.625 -2.125 5.625 -2 2 C-1.34 1.34 -0.68 0.68 0 0 Z " fill="#0F590F" transform="translate(40,17)"/>
<path d="M0 0 C1.24546405 2.49092811 0.7767578 3.41080733 0 6 C1.32 6.33 2.64 6.66 4 7 C2.02 7.33 0.04 7.66 -2 8 C-1.125 1.125 -1.125 1.125 0 0 Z " fill="#01C800" transform="translate(27,50)"/>
<path d="M0 0 C1.32 0 2.64 0 4 0 C4.125 2.875 4.125 2.875 4 6 C3.34 6.66 2.68 7.32 2 8 C2 6.02 2 4.04 2 2 C1.01 2.33 0.02 2.66 -1 3 C-0.67 2.01 -0.34 1.02 0 0 Z " fill="#059D05" transform="translate(50,16)"/>
<path d="M0 0 C0.99 0.33 1.98 0.66 3 1 C3 2.98 3 4.96 3 7 C2.01 6.67 1.02 6.34 0 6 C0 4.02 0 2.04 0 0 Z " fill="#00D500" transform="translate(55,71)"/>
</svg>
