<?xml version="1.0" encoding="UTF-8"?>
<svg version="1.1" xmlns="http://www.w3.org/2000/svg" width="341" height="453">
<path d="M0 0 C2.38798764 0.09989212 2.38798764 0.09989212 4.9375 -0.25 C5.79214844 -0.33765625 6.64679688 -0.4253125 7.52734375 -0.515625 C9.99440513 -0.88467895 9.99440513 -0.88467895 12.0234375 -2.01171875 C14.31692653 -3.15846326 16.14135394 -3.36470022 18.6875 -3.5625 C21.64181288 -3.59506307 21.64181288 -3.59506307 24 -5 C25.76853292 -5.09938863 27.54118275 -5.12969223 29.3125 -5.125 C30.76076172 -5.12886719 30.76076172 -5.12886719 32.23828125 -5.1328125 C35 -5 35 -5 37.11328125 -4.3984375 C39.54492738 -3.88492217 40.64617761 -4.4616731 42.875 -5.5 C46.68221711 -7.02288684 49.00607634 -7.38919084 53 -6 C57.29188221 -3.57063271 57.29188221 -3.57063271 59 -1 C59.5817 1.79216 59.75235832 4.44015938 59.85546875 7.2890625 C60.03774109 10.70790038 61.05407079 13.72077873 62 17 C62.19827643 20.70116001 62.10769886 23.60766843 61.125 27.1875 C60.98496 31.45871999 61.7611029 32.86883396 63.75 36.5625 C69.28539857 46.88666199 71.15488089 58.34620191 70 70 C69.58234375 71.16144531 69.1646875 72.32289062 68.734375 73.51953125 C67.611914 77.012261 67.611914 77.012261 69.52734375 79.921875 C70.32269531 80.85515625 71.11804688 81.7884375 71.9375 82.75 C72.78568513 83.78911715 73.63068597 84.83084076 74.47265625 85.875 C74.89949707 86.39449219 75.32633789 86.91398437 75.76611328 87.44921875 C80.84119991 93.82772099 86.85144855 102.05794185 87.0625 110.5 C82.91373066 120.26181022 73.23722213 129.1208519 64 134 C63.34 134 62.68 134 62 134 C62 134.66 62 135.32 62 136 C61.46632813 136.29132813 60.93265625 136.58265625 60.3828125 136.8828125 C59.63773437 137.29273438 58.89265625 137.70265625 58.125 138.125 C57.40570313 138.51945313 56.68640625 138.91390625 55.9453125 139.3203125 C54.27243876 140.27433864 52.60960958 141.24815515 50.984375 142.28125 C44.20404907 146.53866396 37.10576101 149.77589551 29.7578125 152.89697266 C27.73627428 153.75583143 25.71944189 154.62505656 23.703125 155.49609375 C18.19024563 157.86412949 12.72092729 160.17112563 7 162 C7.44730469 162.79019531 7.89460938 163.58039063 8.35546875 164.39453125 C19.71820887 185.59367327 21.85906093 206.05939547 15 229 C14.56107422 230.30904297 14.56107422 230.30904297 14.11328125 231.64453125 C12.65970609 236.44216948 13.05450244 238.83290087 15.3125 243.375 C16.2063534 244.91781547 17.1019205 246.45964073 18 248 C18.33 248.99 18.66 249.98 19 251 C19.66 251 20.32 251 21 251 C21 251.66 21 252.32 21 253 C21.66 253 22.32 253 23 253 C23 253.66 23 254.32 23 255 C23.66 255 24.32 255 25 255 C25 255.66 25 256.32 25 257 C22.91796875 258.40234375 22.91796875 258.40234375 20.1875 259.9375 C14.87618443 262.93421629 12.09229598 264.96413767 10.1328125 270.83984375 C9.80700195 271.80954102 9.48119141 272.77923828 9.14550781 273.77832031 C8.80874023 274.82084961 8.47197266 275.86337891 8.125 276.9375 C7.77276367 278.01999023 7.42052734 279.10248047 7.05761719 280.21777344 C-0.09882265 302.55295001 -4.80834779 325.40916847 -5.45214844 348.92822266 C-6.52027597 354.9171623 -11.09882054 358.20457323 -15.8046875 361.58203125 C-21.34737587 365.16209509 -26.1736855 366.97036393 -32.75 367.5 C-35.5524766 367.77083296 -35.5524766 367.77083296 -38 369 C-40.45208363 372.78139895 -41.80237729 376.67267817 -43 381 C-42.40445313 381.25394531 -41.80890625 381.50789063 -41.1953125 381.76953125 C-38.7528203 383.13854378 -37.59138256 384.49242783 -35.875 386.6875 C-28.9142201 394.77428841 -21.08448114 398.73473842 -11.06494141 401.87158203 C-6.45491561 403.33719717 -2.81550156 404.98433184 1 408 C1.5 410.625 1.5 410.625 1 413 C-16.87004981 430.87004981 -71.83117496 426.98828559 -95.48925781 427.0637207 C-99.32648913 427.06202401 -103.16294567 427.03673775 -107 427 C-103.76821438 420.59096234 -99.9274424 415.32454689 -95.26953125 409.86328125 C-92.32885974 406.15327743 -90.05099901 402.17691032 -87.80078125 398.01953125 C-86 396 -86 396 -82.79296875 395.69921875 C-81.87128906 395.79847656 -80.94960937 395.89773438 -80 396 C-79.896875 395.38125 -79.79375 394.7625 -79.6875 394.125 C-79 392 -79 392 -76 390 C-75.4211855 387.81157261 -75.4211855 387.81157261 -75.1875 385.3125 C-74.36539836 380.53745963 -72.90954458 378.1691499 -69.6015625 374.72265625 C-67.86732712 372.85729575 -66.46397929 370.93820741 -65.0625 368.8125 C-64.64097656 368.17957031 -64.21945313 367.54664063 -63.78515625 366.89453125 C-62.83814039 365.02341858 -62.83814039 365.02341858 -63.18359375 362.94921875 C-64.11669789 360.72137681 -65.27604694 359.66778416 -67 358 C-68.02734375 356.0546875 -68.02734375 356.0546875 -68.9375 353.875 C-69.23527344 353.17117188 -69.53304687 352.46734375 -69.83984375 351.7421875 C-70.22269531 350.83726562 -70.60554687 349.93234375 -71 349 C-71.31267822 348.37351562 -71.62535645 347.74703125 -71.94750977 347.1015625 C-74.93331036 340.94018879 -76.09195593 334.99593409 -77.0625 328.25 C-78.09183011 319.61210768 -78.09183011 319.61210768 -82 312 C-86.10084549 312.50858858 -86.10084549 312.50858858 -89.875 314.0625 C-93.21522008 315.53612651 -96.45351897 315.53713693 -100 315 C-109.7985456 310.20071236 -114.74344382 300.55418956 -119 291 C-119.37898437 290.17886719 -119.75796875 289.35773438 -120.1484375 288.51171875 C-121.14558868 285.57058019 -121.24023562 283.10356501 -121.3125 280 C-121.69413495 273.54628033 -122.82737851 267.47638205 -124.3125 261.1875 C-124.51335205 260.31673828 -124.7142041 259.44597656 -124.92114258 258.54882812 C-126.1806243 253.4112757 -127.83759563 248.76350157 -130.15844727 244.00732422 C-131.70878753 240.30935566 -131.6361079 238.00747974 -131 234 C-127.47613892 225.95918971 -118.77858317 220.40743245 -111 217 C-107.00441581 216.84287028 -104.42888252 218.04063856 -101 220 C-100.20335937 220.4021875 -99.40671875 220.804375 -98.5859375 221.21875 C-93.43765728 224.02987444 -88.89508608 227.54026928 -84.375 231.25 C-83.84148926 231.68642822 -83.30797852 232.12285645 -82.75830078 232.57250977 C-81.46363141 233.66729513 -80.22597175 234.82879675 -79 236 C-79 236.66 -79 237.32 -79 238 C-78.34 238 -77.68 238 -77 238 C-76.67 235.69 -76.34 233.38 -76 231 C-76.99 230.67 -77.98 230.34 -79 230 C-79.765625 228.0390625 -79.765625 228.0390625 -80.25 225.625 C-80.42015625 224.83351562 -80.5903125 224.04203125 -80.765625 223.2265625 C-81 221 -81 221 -80 218 C-79.34 218 -78.68 218 -78 218 C-78.01160156 217.09636719 -78.02320313 216.19273437 -78.03515625 215.26171875 C-78.04417969 214.08222656 -78.05320313 212.90273437 -78.0625 211.6875 C-78.07410156 210.51574219 -78.08570313 209.34398437 -78.09765625 208.13671875 C-78 205 -78 205 -77 202 C-76.34 202 -75.68 202 -75 202 C-74.67 198.7 -74.34 195.4 -74 192 C-78.29 189.69 -82.58 187.38 -87 185 C-87 184.34 -87 183.68 -87 183 C-87.99 182.67 -88.98 182.34 -90 182 C-94.76653265 175.47454967 -96.05664001 168.90231835 -95 161 C-93.89720839 156.03743774 -92.3596302 151.50381591 -90 147 C-90.78375 146.79375 -91.5675 146.5875 -92.375 146.375 C-98.66073126 143.99075711 -104.85139602 140.35377341 -110 136 C-110 135.34 -110 134.68 -110 134 C-110.86044922 133.62101562 -110.86044922 133.62101562 -111.73828125 133.234375 C-123.54823426 126.78887388 -130.77121439 112.2944051 -136.0625 100.4375 C-136.36172363 99.77097412 -136.66094727 99.10444824 -136.96923828 98.41772461 C-138.52510277 94.75338906 -139.13139222 91.94810391 -139 88 C-154.49526068 94.56567269 -154.49526068 94.56567269 -169.8203125 101.515625 C-177.75096145 105.21789355 -185.74350142 108.77577182 -193.75463867 112.29980469 C-204.35549604 116.97108783 -214.8560297 121.73934105 -225.15087891 127.05126953 C-228.54433097 128.79235149 -231.96151336 130.48613821 -235.375 132.1875 C-236.6954085 132.84746421 -238.01572437 133.5076138 -239.3359375 134.16796875 C-246.16796875 137.58398438 -246.16796875 137.58398438 -253 141 C-254.82666891 135.51999328 -251.25581796 130.07703274 -249 125 C-240.50742164 108.32527696 -222.5271802 103.1713256 -206.3125 95.8125 C-205.65445374 95.51281311 -204.99640747 95.21312622 -204.31842041 94.90435791 C-196.55970913 91.37718835 -188.77685711 88.04714298 -180.79370117 85.04956055 C-178.18066092 84.06787218 -175.58786904 83.04598345 -173 82 C-173.0825 81.0925 -173.165 80.185 -173.25 79.25 C-173 76 -173 76 -171.375 73.625 C-169 72 -169 72 -165.9375 72.0625 C-164.968125 72.041875 -163.99875 72.02125 -163 72 C-161.22804126 69.71356188 -161.22804126 69.71356188 -160 67 C-158.33465845 64.88047438 -157.27223287 64.10586834 -154.75 63.125 C-150.87522221 62.94887374 -148.37870328 64.18069823 -145 66 C-144.67 66.99 -144.34 67.98 -144 69 C-143.01 68.67 -142.02 68.34 -141 68 C-140.87044922 66.39898437 -140.87044922 66.39898437 -140.73828125 64.765625 C-138.90699942 44.44832672 -134.42968923 15.97297703 -118.37109375 1.65625 C-111.81154204 -3.16515153 -105.23360118 -7.28391469 -98 -11 C-96.7628239 -11.66518824 -95.52723558 -12.33333523 -94.29296875 -13.00390625 C-57.86947613 -32.77170505 -32.77748749 -21.85165832 0 0 Z M55 14 C55.33 15.65 55.66 17.3 56 19 C56.33 18.01 56.66 17.02 57 16 C56.34 15.34 55.68 14.68 55 14 Z M50 22 C44.70355585 33.03876242 41.86941321 41.67122023 43 54 C43.66 54 44.32 54 45 54 C45.33773438 52.75863281 45.67546875 51.51726562 46.0234375 50.23828125 C46.4738061 48.5963124 46.92433539 46.95438763 47.375 45.3125 C47.59671875 44.49587891 47.8184375 43.67925781 48.046875 42.83789062 C48.95586242 39.53612751 49.84093029 36.37255802 51.1875 33.21875 C52.14524017 30.60338261 52.03345859 28.92417258 51.625 26.1875 C51.51414062 25.39730469 51.40328125 24.60710938 51.2890625 23.79296875 C51.19367188 23.20128906 51.09828125 22.60960937 51 22 C50.67 22 50.34 22 50 22 Z M56 44 C55.94550162 45.72880982 55.90698312 47.45812712 55.875 49.1875 C55.85179687 50.15042969 55.82859375 51.11335938 55.8046875 52.10546875 C56.0086456 55.12812778 56.73125368 57.26769985 58 60 C57.01 60.33 56.02 60.66 55 61 C55.96885372 62.68496298 56.96986723 64.35178756 58 66 C58.33 66 58.66 66 59 66 C59.30071865 58.44862068 58.42625566 51.41143564 57 44 C56.67 44 56.34 44 56 44 Z M-51 281 C-51.268125 281.639375 -51.53625 282.27875 -51.8125 282.9375 C-53 285 -53 285 -56 286 C-57.20043905 287.75683397 -57.20043905 287.75683397 -58.125 289.875 C-58.45757812 290.57367188 -58.79015625 291.27234375 -59.1328125 291.9921875 C-60.09370688 294.13803783 -60.09370688 294.13803783 -61 297 C-62.3153341 297.70151152 -63.65117592 298.36525925 -65 299 C-66.70921589 300.5412312 -66.70921589 300.5412312 -68 302 C-66.824375 303.0828125 -66.824375 303.0828125 -65.625 304.1875 C-63.15587562 306.83299041 -62.06739722 308.60373611 -61 312 C-59.68 312 -58.36 312 -57 312 C-52.13242438 302.50489359 -47.8017083 293.34476912 -45 283 C-46.98 282.34 -48.96 281.68 -51 281 Z " fill="#19191A" transform="translate(254,26)"/>
<path d="M0 0 C2.38798764 0.09989212 2.38798764 0.09989212 4.9375 -0.25 C5.79214844 -0.33765625 6.64679688 -0.4253125 7.52734375 -0.515625 C9.99440513 -0.88467895 9.99440513 -0.88467895 12.0234375 -2.01171875 C14.31692653 -3.15846326 16.14135394 -3.36470022 18.6875 -3.5625 C21.64181288 -3.59506307 21.64181288 -3.59506307 24 -5 C25.76853292 -5.09938863 27.54118275 -5.12969223 29.3125 -5.125 C30.76076172 -5.12886719 30.76076172 -5.12886719 32.23828125 -5.1328125 C35 -5 35 -5 37.11328125 -4.3984375 C39.54492738 -3.88492217 40.64617761 -4.4616731 42.875 -5.5 C46.68221711 -7.02288684 49.00607634 -7.38919084 53 -6 C57.29188221 -3.57063271 57.29188221 -3.57063271 59 -1 C59.5817 1.79216 59.75235832 4.44015938 59.85546875 7.2890625 C60.03774109 10.70790038 61.05407079 13.72077873 62 17 C62.19827643 20.70116001 62.10769886 23.60766843 61.125 27.1875 C60.98496 31.45871999 61.7611029 32.86883396 63.75 36.5625 C69.28539857 46.88666199 71.15488089 58.34620191 70 70 C69.58234375 71.16144531 69.1646875 72.32289062 68.734375 73.51953125 C67.611914 77.012261 67.611914 77.012261 69.52734375 79.921875 C70.32269531 80.85515625 71.11804688 81.7884375 71.9375 82.75 C72.78568513 83.78911715 73.63068597 84.83084076 74.47265625 85.875 C74.89949707 86.39449219 75.32633789 86.91398437 75.76611328 87.44921875 C80.84119991 93.82772099 86.85144855 102.05794185 87.0625 110.5 C82.91373066 120.26181022 73.23722213 129.1208519 64 134 C63.34 134 62.68 134 62 134 C62 134.66 62 135.32 62 136 C61.46632813 136.29132813 60.93265625 136.58265625 60.3828125 136.8828125 C59.63773437 137.29273438 58.89265625 137.70265625 58.125 138.125 C57.40570313 138.51945313 56.68640625 138.91390625 55.9453125 139.3203125 C54.27189241 140.27465022 52.60845254 141.24861961 50.98217773 142.28125 C44.21671231 146.52624791 37.14032377 149.77498237 29.81274414 152.89697266 C27.80163053 153.75463541 25.79613245 154.62451612 23.79101562 155.49609375 C11.35902106 160.85097832 11.35902106 160.85097832 6 162 C5.01 161.34 4.02 160.68 3 160 C6.88587139 157.53726592 10.75700568 155.11256212 14.8125 152.9375 C18.47663623 150.71027994 20.12073043 148.75853915 22 145 C22.66 145 23.32 145 24 145 C24 144.01 24 143.02 24 142 C24.66 142 25.32 142 26 142 C26.33 140.35 26.66 138.7 27 137 C27.66 137 28.32 137 29 137 C29.10441406 136.30648437 29.20882813 135.61296875 29.31640625 134.8984375 C30.11124026 131.52834128 31.42522698 128.73828578 32.9375 125.625 C36.62327158 117.74964633 39.1484078 110.78023181 38 102 C35.57739304 96.86407324 31.82614197 93.81058384 27 91 C26.01 90.67 25.02 90.34 24 90 C24 89.34 24 88.68 24 88 C22.515 88.495 22.515 88.495 21 89 C20.154375 88.67 19.30875 88.34 18.4375 88 C12.3047598 86.21593012 4.69129307 87.09111688 -1 90 C-5.46768824 93.98718172 -8.27939677 98.39387952 -10.875 103.75 C-13.39581339 108.62267146 -15.65223559 110.59290857 -20.75390625 112.51171875 C-24.53684775 113.33409734 -26.96212858 113.56218035 -30.4375 111.6796875 C-31.283125 111.08414063 -32.12875 110.48859375 -33 109.875 C-45.9822114 101.20241422 -45.9822114 101.20241422 -61 99 C-69.7873067 101.351041 -82.34396907 106.34396907 -89 113 C-95.23727492 112.65691557 -99.71913979 111.04494736 -105.1875 108.125 C-105.87263672 107.77308594 -106.55777344 107.42117187 -107.26367188 107.05859375 C-108.59058045 106.37151308 -109.91090732 105.6715295 -111.22338867 104.95727539 C-112.7498397 104.13479161 -114.30993073 103.37529119 -115.875 102.62890625 C-120.20037722 99.31331378 -120.24137045 93.11773903 -121 88 C-121.18653517 85.26685432 -121.16118363 82.74012172 -121 80 C-127.92506572 82.46646176 -134.53927435 85.17718123 -141.0625 88.5625 C-148.56880669 92.44017452 -156.28582291 95.7678686 -164.0625 99.0625 C-172.61917278 102.6892537 -181.12155888 106.36658456 -189.51171875 110.36328125 C-193.62368199 112.29263466 -197.77803283 114.11357189 -201.9375 115.9375 C-209.7549363 119.38128991 -217.39645589 123.10814489 -225.00585938 126.98681641 C-228.45323416 128.73835967 -231.9149603 130.4611515 -235.375 132.1875 C-236.69537657 132.84752809 -238.01569117 133.50768018 -239.3359375 134.16796875 C-246.16796875 137.58398438 -246.16796875 137.58398438 -253 141 C-254.82666891 135.51999328 -251.25581796 130.07703274 -249 125 C-240.50742164 108.32527696 -222.5271802 103.1713256 -206.3125 95.8125 C-205.65445374 95.51281311 -204.99640747 95.21312622 -204.31842041 94.90435791 C-196.55970913 91.37718835 -188.77685711 88.04714298 -180.79370117 85.04956055 C-178.18066092 84.06787218 -175.58786904 83.04598345 -173 82 C-173.0825 81.0925 -173.165 80.185 -173.25 79.25 C-173 76 -173 76 -171.375 73.625 C-169 72 -169 72 -165.9375 72.0625 C-164.968125 72.041875 -163.99875 72.02125 -163 72 C-161.22804126 69.71356188 -161.22804126 69.71356188 -160 67 C-158.33465845 64.88047438 -157.27223287 64.10586834 -154.75 63.125 C-150.87522221 62.94887374 -148.37870328 64.18069823 -145 66 C-144.67 66.99 -144.34 67.98 -144 69 C-143.01 68.67 -142.02 68.34 -141 68 C-140.87044922 66.39898437 -140.87044922 66.39898437 -140.73828125 64.765625 C-138.90699942 44.44832672 -134.42968923 15.97297703 -118.37109375 1.65625 C-111.81154204 -3.16515153 -105.23360118 -7.28391469 -98 -11 C-96.7628239 -11.66518824 -95.52723558 -12.33333523 -94.29296875 -13.00390625 C-57.86947613 -32.77170505 -32.77748749 -21.85165832 0 0 Z M55 14 C55.33 15.65 55.66 17.3 56 19 C56.33 18.01 56.66 17.02 57 16 C56.34 15.34 55.68 14.68 55 14 Z M50 22 C44.70355585 33.03876242 41.86941321 41.67122023 43 54 C43.66 54 44.32 54 45 54 C45.33773438 52.75863281 45.67546875 51.51726562 46.0234375 50.23828125 C46.4738061 48.5963124 46.92433539 46.95438763 47.375 45.3125 C47.59671875 44.49587891 47.8184375 43.67925781 48.046875 42.83789062 C48.95586242 39.53612751 49.84093029 36.37255802 51.1875 33.21875 C52.14524017 30.60338261 52.03345859 28.92417258 51.625 26.1875 C51.51414062 25.39730469 51.40328125 24.60710938 51.2890625 23.79296875 C51.19367188 23.20128906 51.09828125 22.60960937 51 22 C50.67 22 50.34 22 50 22 Z M56 44 C55.94550162 45.72880982 55.90698312 47.45812712 55.875 49.1875 C55.85179687 50.15042969 55.82859375 51.11335938 55.8046875 52.10546875 C56.0086456 55.12812778 56.73125368 57.26769985 58 60 C57.01 60.33 56.02 60.66 55 61 C55.96885372 62.68496298 56.96986723 64.35178756 58 66 C58.33 66 58.66 66 59 66 C59.30071865 58.44862068 58.42625566 51.41143564 57 44 C56.67 44 56.34 44 56 44 Z " fill="#1E1E1E" transform="translate(254,26)"/>
<path d="M0 0 C2.3984375 1.09375 2.3984375 1.09375 4.75 2.4375 C5.54664063 2.8396875 6.34328125 3.241875 7.1640625 3.65625 C12.31234272 6.46737444 16.85491392 9.97776928 21.375 13.6875 C21.90851074 14.12392822 22.44202148 14.56035645 22.99169922 15.01000977 C24.28636859 16.10479513 25.52402825 17.26629675 26.75 18.4375 C26.75 19.0975 26.75 19.7575 26.75 20.4375 C27.41 20.4375 28.07 20.4375 28.75 20.4375 C29.08 18.7875 29.41 17.1375 29.75 15.4375 C30.719375 15.89640625 31.68875 16.3553125 32.6875 16.828125 C42.21843726 21.23061887 51.50209128 24.22323959 61.75 26.4375 C62.74128906 26.66308594 63.73257813 26.88867188 64.75390625 27.12109375 C66.74947316 27.57392192 68.74912365 28.00874078 70.75 28.4375 C71.245 31.9025 71.245 31.9025 71.75 35.4375 C73.73 35.7675 75.71 36.0975 77.75 36.4375 C78.245 35.4475 78.245 35.4475 78.75 34.4375 C83.06973499 33.82940981 87.39159754 33.69138752 91.75 33.4375 C91.75 38.3875 91.75 43.3375 91.75 48.4375 C92.94625 47.40625 94.1425 46.375 95.375 45.3125 C96.04789062 44.73242188 96.72078125 44.15234375 97.4140625 43.5546875 C99.66221269 41.61360689 99.66221269 41.61360689 101.05029297 39.88720703 C103.83551653 36.67245502 105.74320874 35.07876252 110.0546875 34.6328125 C111.57740025 34.58030516 113.10139098 34.55733522 114.625 34.5625 C115.40875 34.541875 116.1925 34.52125 117 34.5 C118.91621001 34.45326317 120.83322487 34.44176899 122.75 34.4375 C120.11 31.7975 117.47 29.1575 114.75 26.4375 C115.08 25.7775 115.41 25.1175 115.75 24.4375 C116.74 24.4375 117.73 24.4375 118.75 24.4375 C119.08 23.7775 119.41 23.1175 119.75 22.4375 C120.39834654 23.707053 121.04357815 24.97819706 121.6875 26.25 C122.22697266 27.31154297 122.22697266 27.31154297 122.77734375 28.39453125 C123.75 30.4375 123.75 30.4375 124.75 33.4375 C125.41 33.4375 126.07 33.4375 126.75 33.4375 C126.75 34.0975 126.75 34.7575 126.75 35.4375 C127.41 35.4375 128.07 35.4375 128.75 35.4375 C128.75 36.0975 128.75 36.7575 128.75 37.4375 C129.41 37.4375 130.07 37.4375 130.75 37.4375 C130.75 38.0975 130.75 38.7575 130.75 39.4375 C128.66796875 40.83984375 128.66796875 40.83984375 125.9375 42.375 C120.62618443 45.37171629 117.84229598 47.40163767 115.8828125 53.27734375 C115.39409668 54.73188965 115.39409668 54.73188965 114.89550781 56.21582031 C114.39035645 57.77961426 114.39035645 57.77961426 113.875 59.375 C113.34664551 60.99873535 113.34664551 60.99873535 112.80761719 62.65527344 C105.65117735 84.99045001 100.94165221 107.84666847 100.29785156 131.36572266 C99.22972403 137.3546623 94.65117946 140.64207323 89.9453125 144.01953125 C84.40262413 147.59959509 79.5763145 149.40786393 73 149.9375 C70.1975234 150.20833296 70.1975234 150.20833296 67.75 151.4375 C65.29791637 155.21889895 63.94762271 159.11017817 62.75 163.4375 C63.34554687 163.69144531 63.94109375 163.94539062 64.5546875 164.20703125 C66.9971797 165.57604378 68.15861744 166.92992783 69.875 169.125 C76.8357799 177.21178841 84.66551886 181.17223842 94.68505859 184.30908203 C99.29508439 185.77469717 102.93449844 187.42183184 106.75 190.4375 C107.25 193.0625 107.25 193.0625 106.75 195.4375 C88.87995019 213.30754981 33.91882504 209.42578559 10.26074219 209.5012207 C6.42351087 209.49952401 2.58705433 209.47423775 -1.25 209.4375 C1.98178562 203.02846234 5.8225576 197.76204689 10.48046875 192.30078125 C13.42114026 188.59077743 15.69900099 184.61441032 17.94921875 180.45703125 C19.75 178.4375 19.75 178.4375 22.95703125 178.13671875 C23.87871094 178.23597656 24.80039063 178.33523438 25.75 178.4375 C25.853125 177.81875 25.95625 177.2 26.0625 176.5625 C26.75 174.4375 26.75 174.4375 29.75 172.4375 C30.3288145 170.24907261 30.3288145 170.24907261 30.5625 167.75 C31.38460164 162.97495963 32.84045542 160.6066499 36.1484375 157.16015625 C37.88267288 155.29479575 39.28602071 153.37570741 40.6875 151.25 C41.31978516 150.30060547 41.31978516 150.30060547 41.96484375 149.33203125 C42.91185961 147.46091858 42.91185961 147.46091858 42.56640625 145.38671875 C41.63330211 143.15887681 40.47395306 142.10528416 38.75 140.4375 C37.72265625 138.4921875 37.72265625 138.4921875 36.8125 136.3125 C36.36583984 135.25675781 36.36583984 135.25675781 35.91015625 134.1796875 C35.52730469 133.27476562 35.14445312 132.36984375 34.75 131.4375 C34.43732178 130.81101562 34.12464355 130.18453125 33.80249023 129.5390625 C30.81668964 123.37768879 29.65804407 117.43343409 28.6875 110.6875 C27.65816989 102.04960768 27.65816989 102.04960768 23.75 94.4375 C19.64915451 94.94608858 19.64915451 94.94608858 15.875 96.5 C12.53477992 97.97362651 9.29648103 97.97463693 5.75 97.4375 C-4.0485456 92.63821236 -8.99344382 82.99168956 -13.25 73.4375 C-13.62898437 72.61636719 -14.00796875 71.79523438 -14.3984375 70.94921875 C-15.39558868 68.00808019 -15.49023562 65.54106501 -15.5625 62.4375 C-15.94413495 55.98378033 -17.07737851 49.91388205 -18.5625 43.625 C-18.76335205 42.75423828 -18.9642041 41.88347656 -19.17114258 40.98632812 C-20.4306243 35.8487757 -22.08759563 31.20100157 -24.40844727 26.44482422 C-25.95878753 22.74685566 -25.8861079 20.44497974 -25.25 16.4375 C-21.72933416 8.40398068 -9.15570756 -2.4917432 0 0 Z M54.75 63.4375 C54.481875 64.076875 54.21375 64.71625 53.9375 65.375 C52.75 67.4375 52.75 67.4375 49.75 68.4375 C48.54956095 70.19433397 48.54956095 70.19433397 47.625 72.3125 C47.29242188 73.01117188 46.95984375 73.70984375 46.6171875 74.4296875 C45.65629312 76.57553783 45.65629312 76.57553783 44.75 79.4375 C43.4346659 80.13901152 42.09882408 80.80275925 40.75 81.4375 C39.04078411 82.9787312 39.04078411 82.9787312 37.75 84.4375 C38.925625 85.5203125 38.925625 85.5203125 40.125 86.625 C42.59412438 89.27049041 43.68260278 91.04123611 44.75 94.4375 C46.07 94.4375 47.39 94.4375 48.75 94.4375 C53.61757562 84.94239359 57.9482917 75.78226912 60.75 65.4375 C58.77 64.7775 56.79 64.1175 54.75 63.4375 Z " fill="#181818" transform="translate(148.25,243.5625)"/>
<path d="M0 0 C1 1 1 1 1.09765625 3.94140625 C1.08025391 5.73384766 1.08025391 5.73384766 1.0625 7.5625 C1.05347656 8.76003906 1.04445312 9.95757812 1.03515625 11.19140625 C1.01775391 12.58166016 1.01775391 12.58166016 1 14 C0.3294458 14.25692627 -0.3411084 14.51385254 -1.03198242 14.77856445 C-4.08569615 15.95172918 -7.13660019 17.13203787 -10.1875 18.3125 C-11.24259766 18.71662109 -12.29769531 19.12074219 -13.38476562 19.53710938 C-14.91713867 20.13168945 -14.91713867 20.13168945 -16.48046875 20.73828125 C-17.41785889 21.09962158 -18.35524902 21.46096191 -19.32104492 21.83325195 C-22.01433622 22.93200427 -22.01433622 22.93200427 -24.39355469 24.47070312 C-27.53636161 26.31470299 -30.8051538 27.51345747 -34.22265625 28.73046875 C-42.34144502 31.69967316 -50.30256926 34.98386253 -58.2512207 38.37915039 C-60.48655612 39.33344266 -62.72456469 40.2812617 -64.96289062 41.22851562 C-66.39078254 41.83556707 -67.81852317 42.44297451 -69.24609375 43.05078125 C-69.91257431 43.33303055 -70.57905487 43.61527985 -71.26573181 43.90608215 C-74.35852389 45.09177034 -74.35852389 45.09177034 -77 47 C-73.48138292 49.1916447 -70.77578541 49.15373106 -66.6875 49 C-60.8648957 48.90861383 -56.27339258 49.15659879 -51.11328125 52.0625 C-48.65184877 53.15444786 -46.9275884 53.2037526 -44.25 53.125 C-43.45078125 53.10695312 -42.6515625 53.08890625 -41.828125 53.0703125 C-41.22484375 53.04710937 -40.6215625 53.02390625 -40 53 C-40.66 52.34 -41.32 51.68 -42 51 C-29.13 51 -16.26 51 -3 51 C-3 51.33 -3 51.66 -3 52 C-4.65 52 -6.3 52 -8 52 C-8 52.66 -8 53.32 -8 54 C-1.98582884 54.31653532 1.44298281 53.53477977 7 51 C13.59442412 48.89131787 23.60925751 46.80462876 30 50 C30 49.34 30 48.68 30 48 C33.3 47.67 36.6 47.34 40 47 C40 50.63 40 54.26 40 58 C38.35 58.66 36.7 59.32 35 60 C30.5143501 63.86560326 27.67900121 68.4651277 25.125 73.75 C22.60418661 78.62267146 20.34776441 80.59290857 15.24609375 82.51171875 C11.46315225 83.33409734 9.03787142 83.56218035 5.5625 81.6796875 C4.716875 81.08414063 3.87125 80.48859375 3 79.875 C-9.9822114 71.20241422 -9.9822114 71.20241422 -25 69 C-33.7873067 71.351041 -46.34396907 76.34396907 -53 83 C-59.23727492 82.65691557 -63.71913979 81.04494736 -69.1875 78.125 C-69.87263672 77.77308594 -70.55777344 77.42117187 -71.26367188 77.05859375 C-72.59058045 76.37151308 -73.91090732 75.6715295 -75.22338867 74.95727539 C-76.7498397 74.13479161 -78.30993073 73.37529119 -79.875 72.62890625 C-84.20037722 69.31331378 -84.24137045 63.11773903 -85 58 C-85.18653517 55.26685432 -85.16118363 52.74012172 -85 50 C-91.92506572 52.46646176 -98.53927435 55.17718123 -105.0625 58.5625 C-112.56880669 62.44017452 -120.28582291 65.7678686 -128.0625 69.0625 C-136.61917278 72.6892537 -145.12155888 76.36658456 -153.51171875 80.36328125 C-157.62368199 82.29263466 -161.77803283 84.11357189 -165.9375 85.9375 C-173.7549363 89.38128991 -181.39645589 93.10814489 -189.00585938 96.98681641 C-192.45323416 98.73835967 -195.9149603 100.4611515 -199.375 102.1875 C-200.69537657 102.84752809 -202.01569117 103.50768018 -203.3359375 104.16796875 C-207.890625 106.4453125 -212.4453125 108.72265625 -217 111 C-218.82666891 105.51999328 -215.25581796 100.07703274 -213 95 C-204.50742164 78.32527696 -186.5271802 73.1713256 -170.3125 65.8125 C-169.65445374 65.51281311 -168.99640747 65.21312622 -168.31842041 64.90435791 C-160.55970913 61.37718835 -152.77685711 58.04714298 -144.79370117 55.04956055 C-142.18066092 54.06787218 -139.58786904 53.04598345 -137 52 C-137.0825 51.0925 -137.165 50.185 -137.25 49.25 C-137 46 -137 46 -135.375 43.625 C-133 42 -133 42 -129.9375 42.0625 C-128.968125 42.041875 -127.99875 42.02125 -127 42 C-125.22804126 39.71356188 -125.22804126 39.71356188 -124 37 C-122.33465845 34.88047438 -121.27223287 34.10586834 -118.75 33.125 C-114.87522221 32.94887374 -112.37870328 34.18069823 -109 36 C-108.67 36.99 -108.34 37.98 -108 39 C-98.23016445 36.36699468 -89.02633231 32.47045597 -79.6875 28.625 C-76.46305944 27.30268031 -73.23759664 25.98287146 -70.01171875 24.6640625 C-69.22694153 24.34293991 -68.44216431 24.02181732 -67.63360596 23.69096375 C-62.20730258 21.47638877 -56.75501546 19.34118102 -51.27758789 17.25585938 C-47.47438171 15.79860108 -43.68566659 14.3067769 -39.8984375 12.80859375 C-38.85363976 12.39565063 -38.85363976 12.39565063 -37.78773499 11.97436523 C-34.92967576 10.84442386 -32.0719172 9.71373063 -29.21484375 8.58129883 C-25.09529978 6.94908841 -20.97228671 5.32642932 -16.84265137 3.71990967 C-15.11510366 3.04497011 -13.39185628 2.35905266 -11.66894531 1.67236328 C-10.69795898 1.29708496 -9.72697266 0.92180664 -8.7265625 0.53515625 C-7.89979004 0.21039307 -7.07301758 -0.11437012 -6.22119141 -0.44897461 C-3.72436036 -1.06837972 -2.39046268 -0.89072642 0 0 Z " fill="#DBDBDC" transform="translate(218,56)"/>
<path d="M0 0 C1.34528697 0.98386013 2.68241571 1.97933874 4 3 C2.125 8.75 2.125 8.75 1 11 C0.21753906 10.98839844 -0.56492188 10.97679687 -1.37109375 10.96484375 C-2.38300781 10.95582031 -3.39492187 10.94679687 -4.4375 10.9375 C-5.44683594 10.92589844 -6.45617187 10.91429687 -7.49609375 10.90234375 C-9.94021067 10.71387324 -9.94021067 10.71387324 -11 12 C-12.62009359 12.20904433 -14.24682881 12.36785857 -15.875 12.5 C-18.84922849 12.74279416 -21.15075214 13.05025071 -24 14 C-24 14.66 -24 15.32 -24 16 C-25.093125 16.12375 -26.18625 16.2475 -27.3125 16.375 C-31.07381802 16.75464801 -31.07381802 16.75464801 -34 19 C-36.66666667 19 -39.33333333 19 -42 19 C-42.99 19.66 -43.98 20.32 -45 21 C-45.3518239 24.51378551 -45.44029212 27.98914837 -45.49609375 31.51953125 C-47.2948652 35.68240233 -48.10988644 35.87659435 -52.16015625 37.57421875 C-54.43459925 38.39816983 -56.71503315 39.20569976 -59 40 C-61.44252334 40.96863535 -63.87888579 41.94724226 -66.3125 42.9375 C-67.5854692 43.44648529 -68.85891224 43.954287 -70.1328125 44.4609375 C-70.76993164 44.71456055 -71.40705078 44.96818359 -72.06347656 45.22949219 C-74 46 -74 46 -75.93652344 46.77050781 C-83.27866524 49.69325217 -90.60216812 52.65255156 -97.89160156 55.70507812 C-103.37708045 57.99026349 -108.88158442 60.22766334 -114.39306641 62.44921875 C-115.72607977 62.98781001 -117.05809818 63.52886966 -118.38916016 64.07226562 C-120.34826978 64.87174645 -122.31044787 65.66322685 -124.2734375 66.453125 C-125.42247559 66.91879883 -126.57151367 67.38447266 -127.75537109 67.86425781 C-130.85592343 68.94956778 -133.74991202 69.5705922 -137 70 C-136.70629827 47.89226949 -131.72456023 23.97140529 -118 6 C-111.06266622 -0.18484438 -103.22551394 -4.77434382 -95 -9 C-93.7628239 -9.66518824 -92.52723558 -10.33333523 -91.29296875 -11.00390625 C-55.48517241 -30.43755367 -32.71915852 -20.22236197 0 0 Z " fill="#19191A" transform="translate(251,24)"/>
<path d="M0 0 C0.556875 0.4125 1.11375 0.825 1.6875 1.25 C4.48220022 2.64735011 6.76023679 2.26993907 9.875 2.1875 C15.71949294 2.14234387 20.39799823 2.39752695 25.57421875 5.3125 C28.03565123 6.40444786 29.7599116 6.4537526 32.4375 6.375 C33.63632813 6.34792969 33.63632813 6.34792969 34.859375 6.3203125 C35.76429688 6.28550781 35.76429688 6.28550781 36.6875 6.25 C36.0275 5.59 35.3675 4.93 34.6875 4.25 C47.5575 4.25 60.4275 4.25 73.6875 4.25 C73.6875 4.58 73.6875 4.91 73.6875 5.25 C72.0375 5.25 70.3875 5.25 68.6875 5.25 C68.6875 5.91 68.6875 6.57 68.6875 7.25 C74.70167116 7.56653532 78.13048281 6.78477977 83.6875 4.25 C90.28192412 2.14131787 100.29675751 0.05462876 106.6875 3.25 C106.6875 2.59 106.6875 1.93 106.6875 1.25 C109.9875 0.92 113.2875 0.59 116.6875 0.25 C116.6875 3.88 116.6875 7.51 116.6875 11.25 C115.0375 11.91 113.3875 12.57 111.6875 13.25 C107.2018501 17.11560326 104.36650121 21.7151277 101.8125 27 C99.29168661 31.87267146 97.03526441 33.84290857 91.93359375 35.76171875 C88.15065225 36.58409734 85.72537142 36.81218035 82.25 34.9296875 C81.404375 34.33414063 80.55875 33.73859375 79.6875 33.125 C66.7052886 24.45241422 66.7052886 24.45241422 51.6875 22.25 C42.9001933 24.601041 30.34353093 29.59396907 23.6875 36.25 C17.45022508 35.90691557 12.96836021 34.29494736 7.5 31.375 C6.81486328 31.02308594 6.12972656 30.67117187 5.42382812 30.30859375 C4.09701726 29.62156368 2.77677193 28.92166267 1.46435547 28.20751953 C-0.06368947 27.38408009 -1.62509349 26.62308968 -3.19140625 25.875 C-6.14063254 23.61555592 -6.36396018 21.72844322 -7.0625 18.125 C-7.29066406 16.97386719 -7.51882812 15.82273437 -7.75390625 14.63671875 C-8.43506296 10.50690852 -8.95906236 6.42056418 -9.3125 2.25 C-2.91905738 -0.94672131 -2.91905738 -0.94672131 0 0 Z " fill="#C6AB8A" transform="translate(141.3125,102.75)"/>
<path d="M0 0 C3.97280392 0.02579743 5.63751683 0.41885214 8.8046875 2.88671875 C11.41486904 5.73094392 13.76406803 8.64932302 16.0625 11.75 C16.70832031 12.57113281 17.35414063 13.39226563 18.01953125 14.23828125 C21.50847776 18.96919467 22.68687353 21.70826792 22.0625 27.75 C20.95451748 31.16800139 19.5365006 34.41332638 18.0625 37.6875 C17.6809375 38.56212891 17.299375 39.43675781 16.90625 40.33789062 C15.96957909 42.48052532 15.021555 44.61731421 14.0625 46.75 C13.4025 46.75 12.7425 46.75 12.0625 46.75 C9.06460538 39.61215568 7.56522982 32.32701725 6.0625 24.75 C5.86914062 23.78449219 5.67578125 22.81898437 5.4765625 21.82421875 C5.27160156 20.79748047 5.27160156 20.79748047 5.0625 19.75 C4.0725 19.75 3.0825 19.75 2.0625 19.75 C1.78921875 20.61802246 1.5159375 21.48604492 1.234375 22.38037109 C0.11161242 25.60878132 -1.19900683 28.58954384 -2.6875 31.6640625 C-3.2134375 32.75460938 -3.739375 33.84515625 -4.28125 34.96875 C-4.8278125 36.0928125 -5.374375 37.216875 -5.9375 38.375 C-6.75734375 40.07269531 -6.75734375 40.07269531 -7.59375 41.8046875 C-9.68536513 46.13145998 -11.77857357 50.45633322 -13.9375 54.75 C-14.41960937 54.3890625 -14.90171875 54.028125 -15.3984375 53.65625 C-16.03007812 53.1921875 -16.66171875 52.728125 -17.3125 52.25 C-17.93898438 51.7859375 -18.56546875 51.321875 -19.2109375 50.84375 C-20.87844613 49.57161899 -20.87844613 49.57161899 -22.9375 49.75 C-23.700625 50.554375 -24.46375 51.35875 -25.25 52.1875 C-27.9375 54.75 -27.9375 54.75 -30.5625 55.25 C-31.738125 55.4975 -31.738125 55.4975 -32.9375 55.75 C-33.95616229 57.40532623 -34.95560813 59.07260138 -35.9375 60.75 C-40.01197601 62.97444366 -43.20003031 62.8345929 -47.75 62.375 C-48.91144531 62.26414063 -50.07289063 62.15328125 -51.26953125 62.0390625 C-52.14996094 61.94367188 -53.03039062 61.84828125 -53.9375 61.75 C-53.9375 61.09 -53.9375 60.43 -53.9375 59.75 C-52.9475 59.255 -52.9475 59.255 -51.9375 58.75 C-51.27711301 56.33296675 -51.27711301 56.33296675 -50.8671875 53.39453125 C-50.69316406 52.29689453 -50.51914063 51.19925781 -50.33984375 50.06835938 C-50.16582031 48.91142578 -49.99179688 47.75449219 -49.8125 46.5625 C-49.63074219 45.42490234 -49.44898438 44.28730469 -49.26171875 43.11523438 C-48.44568894 37.86012513 -47.9375 33.10343835 -47.9375 27.75 C-56.3525 25.77 -56.3525 25.77 -64.9375 23.75 C-64.2775 22.43 -63.6175 21.11 -62.9375 19.75 C-60.6275 19.75 -58.3175 19.75 -55.9375 19.75 C-55.9375 19.09 -55.9375 18.43 -55.9375 17.75 C-52.76741003 15.63660669 -51.49598959 15.43986736 -47.8125 15.1875 C-44.56829025 15.20515121 -44.56829025 15.20515121 -41.9375 13.75 C-34.64338235 13.51470588 -34.64338235 13.51470588 -30.9375 14.75 C-30.669375 13.821875 -30.40125 12.89375 -30.125 11.9375 C-28.97149848 8.84125909 -28.43061396 7.74790639 -25.9375 5.75 C-23.74609375 5.0546875 -23.74609375 5.0546875 -21.375 4.625 C-18.05044614 4.00868689 -18.05044614 4.00868689 -14.9375 2.75 C-12.60672657 2.44208131 -10.27508104 2.24104726 -7.93359375 2.03125 C-5.08964743 1.63053741 -3.15730117 0.30111708 0 0 Z " fill="#C5A989" transform="translate(282.9375,20.25)"/>
<path d="M0 0 C3.97280392 0.02579743 5.63751683 0.41885214 8.8046875 2.88671875 C11.41486904 5.73094392 13.76406803 8.64932302 16.0625 11.75 C17.03123047 12.98169922 17.03123047 12.98169922 18.01953125 14.23828125 C21.50847776 18.96919467 22.68687353 21.70826792 22.0625 27.75 C20.95451748 31.16800139 19.5365006 34.41332638 18.0625 37.6875 C17.6809375 38.56212891 17.299375 39.43675781 16.90625 40.33789062 C15.96957909 42.48052532 15.021555 44.61731421 14.0625 46.75 C13.4025 46.75 12.7425 46.75 12.0625 46.75 C9.06460538 39.61215568 7.56522982 32.32701725 6.0625 24.75 C5.86914062 23.78449219 5.67578125 22.81898437 5.4765625 21.82421875 C5.27160156 20.79748047 5.27160156 20.79748047 5.0625 19.75 C4.0725 19.75 3.0825 19.75 2.0625 19.75 C1.815 20.55824219 1.5675 21.36648437 1.3125 22.19921875 C-0.18603794 26.45600308 -2.01747394 30.48244462 -3.9375 34.5625 C-4.29328125 35.33787109 -4.6490625 36.11324219 -5.015625 36.91210938 C-5.36109375 37.64880859 -5.7065625 38.38550781 -6.0625 39.14453125 C-6.37445313 39.81331299 -6.68640625 40.48209473 -7.0078125 41.17114258 C-7.9375 42.75 -7.9375 42.75 -9.9375 43.75 C-9.94265625 42.74582031 -9.9478125 41.74164063 -9.953125 40.70703125 C-10.40329323 30.20353578 -13.38261428 24.43554754 -20.89453125 17.12890625 C-23.80400357 14.8543637 -25.31544471 14.01110935 -28.9375 13.75 C-28.6075 11.44 -28.2775 9.13 -27.9375 6.75 C-27.16664063 6.54503906 -26.39578125 6.34007812 -25.6015625 6.12890625 C-24.59867187 5.85949219 -23.59578125 5.59007812 -22.5625 5.3125 C-21.56476563 5.04566406 -20.56703125 4.77882813 -19.5390625 4.50390625 C-16.98332299 3.84815644 -16.98332299 3.84815644 -14.9375 2.75 C-12.60672657 2.44208131 -10.27508104 2.24104726 -7.93359375 2.03125 C-5.08964743 1.63053741 -3.15730117 0.30111708 0 0 Z " fill="#C6A989" transform="translate(282.9375,20.25)"/>
<path d="M0 0 C4.29188221 2.42936729 4.29188221 2.42936729 6 5 C6.5817 7.79216 6.75235832 10.44015938 6.85546875 13.2890625 C7.03774109 16.70790038 8.05407079 19.72077873 9 23 C9.19827643 26.70116001 9.10769886 29.60766843 8.125 33.1875 C7.98496 37.45871999 8.7611029 38.86883396 10.75 42.5625 C16.2734079 52.86429799 18.19134262 64.36506951 17 76 C16.39036132 78.01811425 15.73765604 80.02508025 15 82 C11.87712764 81.76867612 10.78337812 80.80187023 8.4375 78.65625 C4.85982608 74.22234105 4.98150242 69.11540656 4.6875 63.625 C4.61466797 62.60277344 4.54183594 61.58054688 4.46679688 60.52734375 C4.2909685 58.0188589 4.13602593 55.51090492 4 53 C3.9896875 54.258125 3.979375 55.51625 3.96875 56.8125 C3.96294922 57.52019531 3.95714844 58.22789063 3.95117188 58.95703125 C4.0092874 61.38858487 4.41081581 63.64326325 5 66 C2.525 66.99 2.525 66.99 0 68 C-7.64901643 62.79465184 -7.64901643 62.79465184 -8.4140625 58.8828125 C-8.16598054 56.47898385 -7.67198748 54.32175448 -7 52 C-6.77054687 51.13503906 -6.54109375 50.27007812 -6.3046875 49.37890625 C-5.36195074 46.03963342 -4.36457367 42.81421452 -2.9453125 39.64453125 C-0.88870593 33.89113187 -1.01770355 27.97070556 -2 22 C-5.04064911 16.24864456 -9.15198819 11.78873109 -13.80078125 7.2890625 C-16 5 -16 5 -16 3 C-5.15752625 -1.9926806 -5.15752625 -1.9926806 0 0 Z M2 20 C2.33 21.65 2.66 23.3 3 25 C3.33 24.01 3.66 23.02 4 22 C3.34 21.34 2.68 20.68 2 20 Z " fill="#8A1014" transform="translate(307,20)"/>
<path d="M0 0 C0.66 0 1.32 0 2 0 C2 5.61 2 11.22 2 17 C3.32 16.34 4.64 15.68 6 15 C6.99 15 7.98 15 9 15 C9.495 17.97 9.495 17.97 10 21 C9.01 21.66 8.02 22.32 7 23 C7.5775 23.56589844 8.155 24.13179688 8.75 24.71484375 C9.4925 25.44832031 10.235 26.18179687 11 26.9375 C11.7425 27.66839844 12.485 28.39929688 13.25 29.15234375 C15 31 15 31 15 32 C13.83984375 31.93296875 12.6796875 31.8659375 11.484375 31.796875 C1.68267736 31.45258067 1.68267736 31.45258067 -6.796875 35.73828125 C-8.95380995 37.84455419 -10.89524515 40.08574619 -12.8125 42.41015625 C-13.534375 43.26480469 -14.25625 44.11945313 -15 45 C-15.66 45 -16.32 45 -17 45 C-17 40.05 -17 35.1 -17 30 C-17.66 30.33 -18.32 30.66 -19 31 C-20.87379605 31.07033769 -22.75001102 31.0843022 -24.625 31.0625 C-25.62789062 31.05347656 -26.63078125 31.04445313 -27.6640625 31.03515625 C-28.43492187 31.02355469 -29.20578125 31.01195312 -30 31 C-30.495 32.485 -30.495 32.485 -31 34 C-33.875 33.6875 -33.875 33.6875 -37 33 C-39 30 -39 30 -38.625 26.8125 C-38.41875 25.884375 -38.2125 24.95625 -38 24 C-33.25 22.875 -33.25 22.875 -31 24 C-29.29297265 24.06996014 -27.58331997 24.08440154 -25.875 24.0625 C-24.96492187 24.05347656 -24.05484375 24.04445313 -23.1171875 24.03515625 C-22.41851562 24.02355469 -21.71984375 24.01195312 -21 24 C-21.6496875 23.36191406 -22.299375 22.72382813 -22.96875 22.06640625 C-23.8040625 21.24011719 -24.639375 20.41382813 -25.5 19.5625 C-26.3353125 18.73878906 -27.170625 17.91507812 -28.03125 17.06640625 C-30 15 -30 15 -30 14 C-28.25976562 14.11794922 -28.25976562 14.11794922 -26.484375 14.23828125 C-16.59167733 14.63160088 -16.59167733 14.63160088 -8.203125 10.0390625 C-6.0348762 7.74572242 -4.09744611 5.31895747 -2.1875 2.80859375 C-1.465625 1.88175781 -0.74375 0.95492187 0 0 Z " fill="#9B2124" transform="translate(257,247)"/>
<path d="M0 0 C1.13695312 0.14888672 1.13695312 0.14888672 2.296875 0.30078125 C1.55026788 6.02476918 0.46810359 11.64931902 -0.703125 17.30078125 C16.70858963 21.10037152 34.58026737 20.43010307 52.296875 20.36328125 C54.63281154 20.35825389 56.96874912 20.35369318 59.3046875 20.34960938 C64.96877338 20.33870704 70.63281912 20.3220678 76.296875 20.30078125 C70.07157522 26.52608103 56.00912262 26.34735449 47.671875 27.36328125 C46.99233765 27.44727173 46.31280029 27.53126221 45.6126709 27.61779785 C22.64891009 30.42797861 -0.56867966 31.81235375 -23.703125 31.30078125 C-20.54046333 24.86420851 -16.61726342 19.614188 -11.9765625 14.1640625 C-9.02431545 10.44585445 -6.70336137 6.4678747 -4.40625 2.3203125 C-2.703125 0.30078125 -2.703125 0.30078125 0 0 Z " fill="#000000" transform="translate(170.703125,421.69921875)"/>
<path d="M0 0 C0.969375 0.45890625 1.93875 0.9178125 2.9375 1.390625 C12.46843726 5.79311887 21.75209128 8.78573959 32 11 C32.99128906 11.22558594 33.98257813 11.45117188 35.00390625 11.68359375 C36.99947316 12.13642192 38.99912365 12.57124078 41 13 C41.495 16.465 41.495 16.465 42 20 C43.2065625 20.309375 43.2065625 20.309375 44.4375 20.625 C45.7059375 21.305625 45.7059375 21.305625 47 22 C48.08467902 26.28855753 47.9720008 30.23543869 47.75 34.625 C47.66882102 41.07196361 49.15034216 45.22593098 51.8828125 50.96875 C54.09081936 56.95970566 54.01585306 63.95244082 52 70 C48.54074837 68.7508258 45.85306797 67.32472205 43 65 C43.16242188 64.44699219 43.32484375 63.89398438 43.4921875 63.32421875 C44.05280849 60.7582996 44.13275333 58.43700323 44.125 55.8125 C44.12757813 54.93207031 44.13015625 54.05164063 44.1328125 53.14453125 C44.23865033 51.01796809 44.23865033 51.01796809 43 50 C40.66552745 58.67089803 40.80134261 67.10456358 41 76 C38.03 76.99 35.06 77.98 32 79 C28.72504744 69.17514233 31.17511781 58.30376749 35 49 C35.71881664 47.8343514 36.46466347 46.68440933 37.25 45.5625 C39.61232458 40.7534821 39.25906861 36.68802946 39.04296875 31.40234375 C39 28 39 28 39.61328125 24.75390625 C40.34066207 21.79055859 40.34066207 21.79055859 38 19 C35.52944169 18.38310546 33.19528409 17.93287238 30.6875 17.5625 C6.39933527 13.44108752 6.39933527 13.44108752 0 6 C-0.23046875 2.8046875 -0.23046875 2.8046875 0 0 Z " fill="#A01418" transform="translate(178,259)"/>
<path d="M0 0 C1.21236328 0.02707031 1.21236328 0.02707031 2.44921875 0.0546875 C3.37154297 0.08949219 3.37154297 0.08949219 4.3125 0.125 C4.3125 0.785 4.3125 1.445 4.3125 2.125 C4.9415625 2.16238281 5.570625 2.19976562 6.21875 2.23828125 C12.12301149 2.69177121 16.86500146 3.80476914 22.3125 6.125 C21.77475282 16.62034144 20.15624439 26.7930739 18.3125 37.125 C16.8275 37.62 16.8275 37.62 15.3125 38.125 C15.3125 38.785 15.3125 39.445 15.3125 40.125 C14.37567383 39.94324219 14.37567383 39.94324219 13.41992188 39.7578125 C10.55218896 39.20591719 7.6824218 38.6653924 4.8125 38.125 C3.83023438 37.93421875 2.84796875 37.7434375 1.8359375 37.546875 C-3.77764679 36.49900593 -8.9778409 35.90748918 -14.6875 36.125 C-11.41649322 33.38442675 -8.10272379 31.94441925 -4.125 30.4375 C-2.98933594 30.00050781 -1.85367188 29.56351563 -0.68359375 29.11328125 C2.3125 28.125 2.3125 28.125 5.3125 28.125 C4.8175 21.69 4.8175 21.69 4.3125 15.125 C-0.61012717 13.89434321 -2.18563771 15.07869896 -6.6875 17.125 C-7.6775 17.125 -8.6675 17.125 -9.6875 17.125 C-9.90178007 11.7679982 -9.99224351 7.0983939 -7.6875 2.125 C-4.48369983 -0.01086678 -3.66810033 -0.10632175 0 0 Z " fill="#393636" transform="translate(213.6875,41.875)"/>
<path d="M0 0 C0.556875 0.4125 1.11375 0.825 1.6875 1.25 C5.25106353 3.03178176 9.40939734 2.25973461 13.328125 2.1875 C16.55500594 2.24753499 19.52391958 2.63645713 22.6875 3.25 C22.3575 3.91 22.0275 4.57 21.6875 5.25 C17.0675 5.25 12.4475 5.25 7.6875 5.25 C7.3575 6.57 7.0275 7.89 6.6875 9.25 C5.6975 9.91 4.7075 10.57 3.6875 11.25 C3.95426204 13.23491642 3.95426204 13.23491642 4.6875 15.25 C5.6775 15.58 6.6675 15.91 7.6875 16.25 C7.6875 14.27 7.6875 12.29 7.6875 10.25 C10.14590605 10.22308315 12.60401882 10.20320198 15.0625 10.1875 C15.76117188 10.17912109 16.45984375 10.17074219 17.1796875 10.16210938 C22.4609375 10.13671875 22.4609375 10.13671875 24.6875 11.25 C24.19878818 16.74800797 24.19878818 16.74800797 21.96875 18.9375 C19.22537707 20.51587895 17.57595039 20.5613862 14.4375 20.4375 C13.54546875 20.41042969 12.6534375 20.38335937 11.734375 20.35546875 C11.05890625 20.32066406 10.3834375 20.28585938 9.6875 20.25 C11.50421787 24.97346645 13.02292094 27.70757357 16.6875 31.25 C17.3046875 33.36328125 17.3046875 33.36328125 17.6875 35.25 C9.40603571 32.96545813 1.31877725 29.79191489 -5.3125 24.25 C-7.42293148 19.96976429 -7.95614286 15.97460591 -8.3125 11.25 C-8.43367187 10.31414062 -8.55484375 9.37828125 -8.6796875 8.4140625 C-8.94462569 6.36563796 -9.13808395 4.30810942 -9.3125 2.25 C-2.91905738 -0.94672131 -2.91905738 -0.94672131 0 0 Z " fill="#9A856C" transform="translate(141.3125,102.75)"/>
<path d="M0 0 C3 1 3 1 4.28125 3.01171875 C10.16838117 15.93699072 14.14102589 31.2359785 9 45 C5.85759409 44.76722919 4.78365587 43.79979112 2.43359375 41.625 C-1.05321042 37.29499859 -0.97693449 32.49289311 -1.25 27.125 C-1.37915881 25.21086639 -1.50934999 23.29680214 -1.640625 21.3828125 C-1.69484619 20.46725586 -1.74906738 19.55169922 -1.80493164 18.60839844 C-1.98207306 16.2397139 -2.27975198 13.93289143 -2.63671875 11.5859375 C-3.12746706 6.74177676 -1.95053299 4.36919391 0 0 Z " fill="#A41418" transform="translate(313,57)"/>
<path d="M0 0 C0.969375 0.45890625 1.93875 0.9178125 2.9375 1.390625 C12.46843726 5.79311887 21.75209128 8.78573959 32 11 C32.99128906 11.22558594 33.98257813 11.45117188 35.00390625 11.68359375 C36.99947316 12.13642192 38.99912365 12.57124078 41 13 C41.495 16.465 41.495 16.465 42 20 C43.2065625 20.309375 43.2065625 20.309375 44.4375 20.625 C47 22 47 22 47.8125 24.625 C48.14434114 30.59814048 48.18070458 36.0964771 47 42 C43.57068046 38.2440786 42.43570917 33.76533255 41 29 C40.67 31.31 40.34 33.62 40 36 C39.67 36 39.34 36 39 36 C38.93209027 32.06123582 38.89369186 28.56343312 39.625 24.6875 C40.33391203 21.78114056 40.33391203 21.78114056 38 19 C35.52944169 18.38310546 33.19528409 17.93287238 30.6875 17.5625 C6.39933527 13.44108752 6.39933527 13.44108752 0 6 C-0.23046875 2.8046875 -0.23046875 2.8046875 0 0 Z " fill="#700D11" transform="translate(178,259)"/>
<path d="M0 0 C0.33 0.99 0.66 1.98 1 3 C1.680625 2.855625 2.36125 2.71125 3.0625 2.5625 C7.09375885 3.16290025 8.55283312 5.08318536 11.2265625 8.04296875 C12.9111025 9.99326438 12.9111025 9.99326438 14.7109375 11.42578125 C20.05217993 16.25895428 20.54215929 22.96383593 21.03125 29.796875 C21.17461405 35.11568117 19.70894532 39.44404651 17 44 C9.90178571 40.11607143 9.90178571 40.11607143 7 37 C7.28875 36.45472656 7.5775 35.90945312 7.875 35.34765625 C10.52895879 29.95680245 12.54437335 25.01165467 11 19 C7.74412745 13.29056161 3.20113551 8.93256587 -2 5 C-1.34 3.35 -0.68 1.7 0 0 Z " fill="#9F886F" transform="translate(253,31)"/>
<path d="M0 0 C0.66 0 1.32 0 2 0 C2 5.94 2 11.88 2 18 C-2.21629134 20.10814567 -4.39790775 20.17700355 -9 20 C-9.33 20.66 -9.66 21.32 -10 22 C-13.3975724 23.26060722 -16.42459034 23.56585615 -20 23 C-23.55742273 20.4492966 -26.33505398 17.46314241 -29 14 C-29 13.67 -29 13.34 -29 13 C-27.82824219 13.06703125 -26.65648437 13.1340625 -25.44921875 13.203125 C-15.72822739 13.60715128 -15.72822739 13.60715128 -7.42578125 9.26171875 C-5.44110218 7.1524225 -3.69147314 4.91564207 -1.96875 2.58984375 C-1.3190625 1.73519531 -0.669375 0.88054687 0 0 Z " fill="#E9E6E7" transform="translate(256,248)"/>
<path d="M0 0 C3.07430096 1.91418739 5.36851661 3.40625621 6.73828125 6.86328125 C7.46677659 10.65292871 7.1288604 13.46200416 5.4375 16.9375 C3 20 3 20 -0.15234375 20.69140625 C-1.09207031 20.79324219 -2.03179687 20.89507812 -3 21 C-3.51949219 20.26394531 -4.03898437 19.52789062 -4.57421875 18.76953125 C-8.91721998 12.54412419 -8.91721998 12.54412419 -14 6.9375 C-14.66 6.298125 -15.32 5.65875 -16 5 C-16 4.34 -16 3.68 -16 3 C-5.15752625 -1.9926806 -5.15752625 -1.9926806 0 0 Z " fill="#343131" transform="translate(307,20)"/>
<path d="M0 0 C2.23828125 1.71484375 2.23828125 1.71484375 4.3125 3.9375 C5.00988281 4.66839844 5.70726562 5.39929688 6.42578125 6.15234375 C8 8 8 8 8 9 C6.83984375 8.93296875 5.6796875 8.8659375 4.484375 8.796875 C-5.31732264 8.45258067 -5.31732264 8.45258067 -13.796875 12.73828125 C-15.95380995 14.84455419 -17.89524515 17.08574619 -19.8125 19.41015625 C-20.534375 20.26480469 -21.25625 21.11945313 -22 22 C-22.66 22 -23.32 22 -24 22 C-24 17.05 -24 12.1 -24 7 C-22.79601562 6.57847656 -21.59203125 6.15695312 -20.3515625 5.72265625 C-18.77601743 5.16933983 -17.20049792 4.61595064 -15.625 4.0625 C-14.43390625 3.64581055 -14.43390625 3.64581055 -13.21875 3.22070312 C-12.45820313 2.95322266 -11.69765625 2.68574219 -10.9140625 2.41015625 C-10.2123291 2.16402588 -9.5105957 1.91789551 -8.78759766 1.66430664 C-3.27934089 -0.3826705 -3.27934089 -0.3826705 0 0 Z " fill="#A09EA1" transform="translate(264,270)"/>
<path d="M0 0 C0.33 0 0.66 0 1 0 C1.28875 1.19625 1.5775 2.3925 1.875 3.625 C2.7524334 7.14726836 3.80020637 10.57201821 5 14 C5.66 14 6.32 14 7 14 C11.26582354 22.45547165 12.95454881 29.522694 12 39 C11.67 39.99 11.34 40.98 11 42 C7.54074837 40.7508258 4.85306797 39.32472205 2 37 C2.16113281 36.43925781 2.32226562 35.87851562 2.48828125 35.30078125 C3.95417906 28.70983616 3.19344384 22.30615103 1 16 C-0.98 16.99 -0.98 16.99 -3 18 C-2.8453125 17.47792969 -2.690625 16.95585937 -2.53125 16.41796875 C-1.61945334 12.26795308 -1.54490763 8.03342787 -1.28125 3.80078125 C-1 1 -1 1 0 0 Z " fill="#931216" transform="translate(219,287)"/>
<path d="M0 0 C0.90105469 0.01804688 1.80210937 0.03609375 2.73046875 0.0546875 C3.41753906 0.07789063 4.10460937 0.10109375 4.8125 0.125 C4.8125 0.455 4.8125 0.785 4.8125 1.125 C1.8425 1.125 -1.1275 1.125 -4.1875 1.125 C-1.84198475 3.53566845 0.40405534 5.82694579 3.125 7.8125 C3.681875 8.245625 4.23875 8.67875 4.8125 9.125 C4.8125 9.785 4.8125 10.445 4.8125 11.125 C5.4725 11.125 6.1325 11.125 6.8125 11.125 C7.4634259 12.37235567 8.10801669 13.62301832 8.75 14.875 C9.10964844 15.57109375 9.46929687 16.2671875 9.83984375 16.984375 C11.52135452 20.68504931 11.93455095 23.82553513 11.875 27.875 C11.86597656 28.67421875 11.85695312 29.4734375 11.84765625 30.296875 C11.83605469 30.90015625 11.82445312 31.5034375 11.8125 32.125 C8.8425 32.62 8.8425 32.62 5.8125 33.125 C5.85890625 32.4959375 5.9053125 31.866875 5.953125 31.21875 C6.28909605 23.25143658 4.14931823 18.63022735 -0.1875 12.125 C-1.99906394 11.35152686 -1.99906394 11.35152686 -4.1015625 10.95703125 C-5.24238281 10.70083008 -5.24238281 10.70083008 -6.40625 10.43945312 C-7.2003125 10.27380859 -7.994375 10.10816406 -8.8125 9.9375 C-9.61429688 9.76025391 -10.41609375 9.58300781 -11.2421875 9.40039062 C-13.22160771 8.96444689 -15.20427687 8.54330295 -17.1875 8.125 C-16.5275 6.805 -15.8675 5.485 -15.1875 4.125 C-12.8775 4.125 -10.5675 4.125 -8.1875 4.125 C-8.1875 3.465 -8.1875 2.805 -8.1875 2.125 C-4.87379 -0.08414 -3.8428979 -0.09981553 0 0 Z " fill="#B1977B" transform="translate(235.1875,35.875)"/>
<path d="M0 0 C4.51652726 -0.75275454 6.76974393 -0.84281722 10.6171875 1.79296875 C21.33509331 11.28642538 21.33509331 11.28642538 22.3671875 17.05078125 C22.83305636 24.98425385 19.20091363 31.48858387 15 38 C14.01 37.67 13.02 37.34 12 37 C12.33 35.9275 12.66 34.855 13 33.75 C14.64459311 27.10063791 15.10815586 20.04742862 12.75 13.5625 C12.1725 12.716875 11.595 11.87125 11 11 C10.4225 10.154375 9.845 9.30875 9.25 8.4375 C6.44772501 5.40170209 3.39449444 3.35003461 0 1 C0 0.67 0 0.34 0 0 Z " fill="#C6AA8A" transform="translate(243,35)"/>
<path d="M0 0 C12.87 0 25.74 0 39 0 C39 0.33 39 0.66 39 1 C37.35 1 35.7 1 34 1 C34 1.66 34 2.32 34 3 C34.99 3.33 35.98 3.66 37 4 C23.47 4 9.94 4 -4 4 C-4 3.67 -4 3.34 -4 3 C-2.02 2.67 -0.04 2.34 2 2 C1.34 1.34 0.68 0.68 0 0 Z " fill="#A48C72" transform="translate(176,107)"/>
<path d="M0 0 C0.33 0.99 0.66 1.98 1 3 C1.680625 2.855625 2.36125 2.71125 3.0625 2.5625 C7.74456988 3.25982956 9.96937602 6.56002634 13 10 C13.804375 10.86625 14.60875 11.7325 15.4375 12.625 C17.22672801 15.34462658 17.36480327 16.80797137 17 20 C16.34 20 15.68 20 15 20 C14.67 21.65 14.34 23.3 14 25 C13.72414063 24.42894531 13.44828125 23.85789062 13.1640625 23.26953125 C9.32262096 15.78000933 4.59680749 10.2071247 -2 5 C-1.34 3.35 -0.68 1.7 0 0 Z " fill="#9C866E" transform="translate(253,31)"/>
<path d="M0 0 C9.01128257 -0.57682463 15.58528184 -0.49238382 23 5 C20.61638556 8.35872945 18.242316 9.51798044 14.3125 10.3125 C10.66768416 10.58870447 9.3479509 10.25161103 6.34765625 8.08203125 C4.06610987 5.81490222 1.96127648 3.54871195 0 1 C0 0.67 0 0.34 0 0 Z " fill="#9C9C9F" transform="translate(227,261)"/>
<path d="M0 0 C3.26460973 1.80412643 4.88929795 2.83394693 7 6 C7.66 5.34 8.32 4.68 9 4 C12.27805448 9.46342414 11.70535013 16.39989294 10.51171875 22.4921875 C10.01677213 24.33056066 9.50954978 26.1656208 9 28 C9.33 28.66 9.66 29.32 10 30 C7.69 30.33 5.38 30.66 3 31 C3.2165625 30.28714844 3.433125 29.57429688 3.65625 28.83984375 C6.50538885 19.03933374 6.6163298 13.11472416 2 4 C1.62617188 3.25105469 1.25234375 2.50210938 0.8671875 1.73046875 C0.58101562 1.15941406 0.29484375 0.58835938 0 0 Z " fill="#B79D7F" transform="translate(247,44)"/>
<path d="M0 0 C2.23828125 1.71484375 2.23828125 1.71484375 4.3125 3.9375 C5.00988281 4.66839844 5.70726562 5.39929688 6.42578125 6.15234375 C8 8 8 8 8 9 C1.73 9 -4.54 9 -11 9 C-11 7.35 -11 5.7 -11 4 C-7.37588411 0.8815747 -4.77863469 -0.65560537 0 0 Z " fill="#C7C3C5" transform="translate(264,270)"/>
<path d="M0 0 C0.99386719 0.00902344 1.98773438 0.01804687 3.01171875 0.02734375 C4.15060547 0.04474609 4.15060547 0.04474609 5.3125 0.0625 C4.71390845 6.40757042 4.71390845 6.40757042 3.125 9 C0.35661529 10.62284621 -1.54295467 10.51172076 -4.6875 10.0625 C-7.0625 8.375 -7.0625 8.375 -8.6875 6.0625 C-8.9375 3.3125 -8.9375 3.3125 -8.6875 1.0625 C-5.53819107 0.01273036 -3.29935544 -0.03881595 0 0 Z " fill="#080907" transform="translate(233.6875,112.9375)"/>
<path d="M0 0 C1.95825873 -0.02694851 3.91662226 -0.04637218 5.875 -0.0625 C6.96554688 -0.07410156 8.05609375 -0.08570312 9.1796875 -0.09765625 C12 0 12 0 14 1 C13.51578947 6.44736842 13.51578947 6.44736842 11.25 8.875 C8.50272993 10.24863504 7.03212094 10.53062116 4 10 C1.6875 8.375 1.6875 8.375 0 6 C-0.06695996 4.00112122 -0.07392206 1.99863342 0 0 Z " fill="#080706" transform="translate(152,113)"/>
<path d="M0 0 C0 3.63 0 7.26 0 11 C-0.66 10.67 -1.32 10.34 -2 10 C-1.67 7.69 -1.34 5.38 -1 3 C-2.27738037 3.48218994 -2.27738037 3.48218994 -3.58056641 3.97412109 C-7.10658449 5.03197687 -10.03979577 5.3130219 -13.7109375 5.4140625 C-14.95488281 5.45273438 -16.19882813 5.49140625 -17.48046875 5.53125 C-19.40826172 5.57765625 -19.40826172 5.57765625 -21.375 5.625 C-23.33759766 5.68300781 -23.33759766 5.68300781 -25.33984375 5.7421875 C-28.55975716 5.83619957 -31.7796688 5.92185821 -35 6 C-28.49511374 0.77085652 -20.03832624 1.58527604 -12 2 C-11.34 2.33 -10.68 2.66 -10 3 C-10 2.34 -10 1.68 -10 1 C-6.56484998 0.37542727 -3.50935186 0 0 0 Z " fill="#907B64" transform="translate(258,103)"/>
<path d="M0 0 C2.0062189 0.29359301 4.00511766 0.63729412 6 1 C8.66398382 1.35870518 11.33123548 1.67790773 14 2 C14 2.33 14 2.66 14 3 C12.02 3 10.04 3 8 3 C8 4.32 8 5.64 8 7 C11.3 7 14.6 7 18 7 C18 7.33 18 7.66 18 8 C14.37 8 10.74 8 7 8 C6.67 8.99 6.34 9.98 6 11 C3.125 10.6875 3.125 10.6875 0 10 C-2 7 -2 7 -1.6875 3.875 C-1 1 -1 1 0 0 Z " fill="#901417" transform="translate(220,270)"/>
<path d="M0 0 C1.98 0 3.96 0 6 0 C7.37004923 6.85024615 7.37004923 13.14975385 6 20 C2.57068046 16.2440786 1.43570917 11.76533255 0 7 C-0.33 9.31 -0.66 11.62 -1 14 C-1.33 14 -1.66 14 -2 14 C-2.1799928 8.78020872 -1.97094808 4.92737019 0 0 Z " fill="#5A0D11" transform="translate(219,281)"/>
<path d="M0 0 C4.6798419 3.66798419 4.6798419 3.66798419 6.6875 5.75 C7.93929598 7.22988506 7.93929598 7.22988506 10 7 C10.8723412 9.99480917 11.10829766 12.63575911 11.0625 15.75 C11.05347656 16.54921875 11.04445312 17.3484375 11.03515625 18.171875 C11.02355469 18.77515625 11.01195312 19.3784375 11 20 C9.02 20.33 7.04 20.66 5 21 C5.06960937 20.05640625 5.06960937 20.05640625 5.140625 19.09375 C5.37969731 13.42432087 4.8402904 9.61469212 1.97265625 4.69140625 C1 3 1 3 0 0 Z " fill="#A99175" transform="translate(236,48)"/>
<path d="M0 0 C4.05906486 -0.49702835 7.55809564 -0.86984448 11.15625 1.30078125 C12.89374835 2.79260873 14.50530273 4.2649977 16 6 C16 6.33 16 6.66 16 7 C9.91766294 6.32418477 3.98685848 5.26361972 -2 4 C-1.34 2.68 -0.68 1.36 0 0 Z " fill="#C1A686" transform="translate(220,40)"/>
<path d="M0 0 C-3.90480249 1.35862973 -7.7101776 0.89469712 -11.75 0.5625 C-12.44738281 0.51029297 -13.14476562 0.45808594 -13.86328125 0.40429688 C-15.57596203 0.27525928 -17.28805066 0.13840386 -19 0 C-19 0.99 -19 1.98 -19 3 C-15.7 3 -12.4 3 -9 3 C-9 3.33 -9 3.66 -9 4 C-12.63 4 -16.26 4 -20 4 C-19.67 6.31 -19.34 8.62 -19 11 C-21.4375 10.25 -21.4375 10.25 -24 9 C-24.8125 6.875 -24.8125 6.875 -25 5 C-24.360625 4.566875 -23.72125 4.13375 -23.0625 3.6875 C-20.73253997 2.08760823 -20.73253997 2.08760823 -20 -1 C-17.79317093 -1.22370596 -15.58440027 -1.42830391 -13.375 -1.625 C-11.53035156 -1.79902344 -11.53035156 -1.79902344 -9.6484375 -1.9765625 C-5.94681886 -2.00034163 -3.40982003 -1.37441976 0 0 Z " fill="#A28D72" transform="translate(169,109)"/>
<path d="M0 0 C0.33 0 0.66 0 1 0 C1 1.65 1 3.3 1 5 C1.84304687 5.04898438 2.68609375 5.09796875 3.5546875 5.1484375 C5.19824219 5.26058594 5.19824219 5.26058594 6.875 5.375 C7.96554688 5.44460937 9.05609375 5.51421875 10.1796875 5.5859375 C13 6 13 6 15 8 C10.8160335 10.06440531 7.79364129 10.0902668 3.1875 9.625 C2.02605469 9.51414062 0.86460937 9.40328125 -0.33203125 9.2890625 C-1.21246094 9.19367188 -2.09289062 9.09828125 -3 9 C-3 8.34 -3 7.68 -3 7 C-2.34 6.67 -1.68 6.34 -1 6 C-0.34227572 2.97065509 -0.34227572 2.97065509 0 0 Z " fill="#A18A71" transform="translate(232,73)"/>
<path d="M0 0 C2.50009087 2.50009087 2.29712739 3.4212859 2.3125 6.875 C2.32925781 7.73867188 2.34601563 8.60234375 2.36328125 9.4921875 C1.93232577 12.46717049 0.8275877 13.66631109 -1 16 C-1.56327743 18.11818257 -1.56327743 18.11818257 -1.6875 20.25 C-1.790625 21.4875 -1.89375 22.725 -2 24 C-2.33 24 -2.66 24 -3 24 C-3.22161447 16.14499806 -3.22475427 8.59989051 -1 1 C-0.67 0.67 -0.34 0.34 0 0 Z " fill="#271819" transform="translate(221,308)"/>
<path d="M0 0 C4.0872879 2.09887757 6.05764272 3.82421172 8 8 C8.42353853 10.82346946 8.41957527 13.58715893 8.375 16.4375 C8.38660156 17.17548828 8.39820313 17.91347656 8.41015625 18.67382812 C8.3843413 23.51413156 7.54381804 26.7535736 5 31 C4.34 31 3.68 31 3 31 C3.2165625 30.28714844 3.433125 29.57429688 3.65625 28.83984375 C6.50538885 19.03933374 6.6163298 13.11472416 2 4 C1.62617188 3.25105469 1.25234375 2.50210938 0.8671875 1.73046875 C0.58101562 1.15941406 0.29484375 0.58835938 0 0 Z " fill="#99836A" transform="translate(247,44)"/>
<path d="M0 0 C-0.33 4.62 -0.66 9.24 -1 14 C-7 11 -7 11 -8.25 8.6875 C-7.90529112 4.98187957 -6.17933911 3.62279722 -3.54296875 1.13671875 C-2 0 -2 0 0 0 Z " fill="#C9CACC" transform="translate(258,248)"/>
<path d="M0 0 C6.59229145 -0.7013076 10.49376557 1.50397814 16 5 C12.2890625 7.9921875 12.2890625 7.9921875 9.6875 8.0625 C5.80201484 6.52637796 2.91919395 3.96125726 0 1 C0 0.67 0 0.34 0 0 Z " fill="#AFB0B3" transform="translate(234,261)"/>
<path d="M0 0 C6.0097891 5.47951359 10.95450277 12.0225608 13 20 C7.21297974 14.57466851 1.28038275 8.28413195 -2 1 C-1.34 0.67 -0.68 0.34 0 0 Z " fill="#958067" transform="translate(266,24)"/>
<path d="M0 0 C3.40667322 0.44824648 5.07914607 1.05276405 8 3 C7.8125 4.875 7.8125 4.875 7 7 C4.5625 8.3125 4.5625 8.3125 2 9 C1.34 8.67 0.68 8.34 0 8 C-0.6875 4.5 -0.6875 4.5 -1 1 C-0.67 0.67 -0.34 0.34 0 0 Z " fill="#181818" transform="translate(261,71)"/>
<path d="M0 0 C0.66 0 1.32 0 2 0 C3.59842113 2.00995492 5.05870765 4.00680677 6.5 6.125 C6.90347656 6.69476563 7.30695313 7.26453125 7.72265625 7.8515625 C10.19439089 11.44088013 11.81353926 14.75711323 13 19 C9.52218889 15.59644821 6.2555101 12.10082022 3.125 8.375 C1.92230469 6.96347656 1.92230469 6.96347656 0.6953125 5.5234375 C0.13585937 4.69070312 -0.42359375 3.85796875 -1 3 C-0.67 2.01 -0.34 1.02 0 0 Z " fill="#957F67" transform="translate(278,21)"/>
<path d="M0 0 C1.65 0 3.3 0 5 0 C6.4606285 2.64738916 7 3.89448334 7 7 C4.69 7.33 2.38 7.66 0 8 C-1.125 6.25 -1.125 6.25 -2 4 C-1.125 1.75 -1.125 1.75 0 0 Z " fill="#E6E2E3" transform="translate(259,270)"/>
<path d="M0 0 C1.32 0.33 2.64 0.66 4 1 C4.05395478 2.62463842 4.09277195 4.24978541 4.125 5.875 C4.14820313 6.77992188 4.17140625 7.68484375 4.1953125 8.6171875 C4 11 4 11 2 13 C1.34 11.02 0.68 9.04 0 7 C-0.33 9.31 -0.66 11.62 -1 14 C-1.33 14 -1.66 14 -2 14 C-2.1799928 8.78020872 -1.97094808 4.92737019 0 0 Z " fill="#3D1415" transform="translate(219,281)"/>
<path d="M0 0 C0.33 0 0.66 0 1 0 C1 1.98 1 3.96 1 6 C1.66 6 2.32 6 3 6 C2.67 8.64 2.34 11.28 2 14 C1.01 14.33 0.02 14.66 -1 15 C-1.33 15.66 -1.66 16.32 -2 17 C-2.22084624 10.90218999 -2.01167675 5.78357065 0 0 Z " fill="#41403F" transform="translate(230,65)"/>
<path d="M0 0 C0.33 0 0.66 0 1 0 C1.28875 0.94875 1.5775 1.8975 1.875 2.875 C2.76825109 6.05211578 2.76825109 6.05211578 5 8 C6.98821313 8.39764263 8.98944339 8.73775349 11 9 C11 9.33 11 9.66 11 10 C8.77090129 10.02714735 6.54170633 10.04646254 4.3125 10.0625 C3.07113281 10.07410156 1.82976562 10.08570312 0.55078125 10.09765625 C-2.46235454 10.01478673 -5.08275339 9.70839449 -8 9 C-8 8.34 -8 7.68 -8 7 C-5.36 7.33 -2.72 7.66 0 8 C-0.2784375 6.2984375 -0.2784375 6.2984375 -0.5625 4.5625 C-0.706875 3.386875 -0.85125 2.21125 -1 1 C-0.67 0.67 -0.34 0.34 0 0 Z " fill="#878873" transform="translate(224,114)"/>
<path d="M0 0 C3.3 0 6.6 0 10 0 C10 2.64 10 5.28 10 8 C11.65 7.34 13.3 6.68 15 6 C12.48169253 9.12270126 11.2738451 9.94523098 7.25 10.75 C5.64125 10.87375 5.64125 10.87375 4 11 C4.474375 10.278125 4.94875 9.55625 5.4375 8.8125 C6.94152903 6.10524774 7.56599182 4.03805725 8 1 C5.36 1 2.72 1 0 1 C0 0.67 0 0.34 0 0 Z " fill="#838773" transform="translate(231,112)"/>
<path d="M0 0 C-1.78395778 2.40446483 -3.21376127 3.80982673 -6.1640625 4.5234375 C-9.87786957 4.97102988 -12.40560232 5.19813256 -16 4 C-16 3.34 -16 2.68 -16 2 C-10.54538831 0.61470179 -5.63281599 -0.2396943 0 0 Z " fill="#1A1612" transform="translate(226,106)"/>
<path d="M0 0 C1.32 0.33 2.64 0.66 4 1 C3.34 1 2.68 1 2 1 C3.09786425 6.40787385 3.09786425 6.40787385 7 10 C4.61888932 10.85039667 3.28649422 11.07366994 0.8125 10.4375 C-1 9 -1 9 -1.875 6.0625 C-2 3 -2 3 0 0 Z " fill="#8B1115" transform="translate(220,270)"/>
<path d="M0 0 C1.65 0.33 3.3 0.66 5 1 C4.75 3.875 4.75 3.875 4 7 C1.9375 8.375 1.9375 8.375 0 9 C-2 6 -2 6 -2 2 C-1.34 2 -0.68 2 0 2 C0 1.34 0 0.68 0 0 Z " fill="#2D2D2B" transform="translate(161,113)"/>
<path d="M0 0 C0 3.63 0 7.26 0 11 C-0.66 10.67 -1.32 10.34 -2 10 C-1.67 7.69 -1.34 5.38 -1 3 C-1.78375 3.33 -2.5675 3.66 -3.375 4 C-7.99361869 5.27410171 -12.24249356 5.16923936 -17 5 C-17 4.67 -17 4.34 -17 4 C-13.92382812 3.70703125 -13.92382812 3.70703125 -10.84765625 3.4140625 C-10.23792969 3.27742188 -9.62820312 3.14078125 -9 3 C-8.67 2.34 -8.34 1.68 -8 1 C-5.14829211 0.01665245 -3.10359391 0 0 0 Z " fill="#9D876E" transform="translate(258,103)"/>
<path d="M0 0 C5.28 0.99 10.56 1.98 16 3 C15.67 3.66 15.34 4.32 15 5 C12.6859378 5.73075648 10.35171131 6.40138258 8 7 C8 6.34 8 5.68 8 5 C6.68 5.33 5.36 5.66 4 6 C2.68 4.02 1.36 2.04 0 0 Z " fill="#151516" transform="translate(277,84)"/>
<path d="M0 0 C3.63 0 7.26 0 11 0 C10.67 2.31 10.34 4.62 10 7 C7.5625 6.25 7.5625 6.25 5 5 C4.1875 2.875 4.1875 2.875 4 1 C2.68 0.67 1.36 0.34 0 0 Z " fill="#292827" transform="translate(228,113)"/>
<path d="M0 0 C0.99 0 1.98 0 3 0 C3.28875 1.093125 3.5775 2.18625 3.875 3.3125 C4.81893204 7.04013845 4.81893204 7.04013845 7 10 C3.53058454 9.54177532 0.32604951 9.10868317 -3 8 C-3 7.34 -3 6.68 -3 6 C-2.01 6 -1.02 6 0 6 C0 4.02 0 2.04 0 0 Z " fill="#6E7A67" transform="translate(149,113)"/>
<path d="M0 0 C3.44175831 1.14725277 4.29119275 2.25284652 6.5625 5 C8.92210327 7.94959179 8.92210327 7.94959179 12 10 C11.34 12.31 10.68 14.62 10 17 C9.731875 16.4328125 9.46375 15.865625 9.1875 15.28125 C7.94161956 12.8878481 6.52428822 10.72546079 5 8.5 C3.10810554 5.73783409 1.43164697 3.02848397 0 0 Z " fill="#3B3633" transform="translate(257,39)"/>
<path d="M0 0 C5.53657294 -0.42589023 9.89665983 1.094753 15 3 C15 3.33 15 3.66 15 4 C13.25034642 4.05429959 11.50020213 4.09292823 9.75 4.125 C8.77546875 4.14820312 7.8009375 4.17140625 6.796875 4.1953125 C3.9803502 3.99862781 2.39050964 3.44568916 0 2 C0 1.34 0 0.68 0 0 Z " fill="#0C0A08" transform="translate(165,106)"/>
<path d="M0 0 C2.90802461 2.21928194 4.95312762 3.92969143 7 7 C7.1953125 10.13671875 7.1953125 10.13671875 7.125 13.6875 C7.10695312 14.86699219 7.08890625 16.04648438 7.0703125 17.26171875 C7.03550781 18.61716797 7.03550781 18.61716797 7 20 C6.67 20 6.34 20 6 20 C5.97421875 19.443125 5.9484375 18.88625 5.921875 18.3125 C5.53581676 13.11826185 4.48281051 9.27443349 1.9375 4.7265625 C1 3 1 3 0 0 Z " fill="#947F67" transform="translate(236,48)"/>
<path d="M0 0 C0.33 0 0.66 0 1 0 C1 4.95 1 9.9 1 15 C-3.17799643 12.91100178 -3.92391901 11.94455388 -6 8 C-3.525 8.99 -3.525 8.99 -1 10 C-0.67 6.7 -0.34 3.4 0 0 Z " fill="#DBD9DA" transform="translate(257,251)"/>
<path d="M0 0 C0.99 0 1.98 0 3 0 C3.33 2.64 3.66 5.28 4 8 C1.5625 7.25 1.5625 7.25 -1 6 C-1.9375 4 -1.9375 4 -2 2 C-1.34 1.34 -0.68 0.68 0 0 Z " fill="#C3C2C0" transform="translate(146,112)"/>
<path d="M0 0 C0.66 0.33 1.32 0.66 2 1 C2.625 3.5625 2.625 3.5625 3 6 C2.01 6 1.02 6 0 6 C-0.33 6.99 -0.66 7.98 -1 9 C-1.33 8.01 -1.66 7.02 -2 6 C-2.66 6 -3.32 6 -4 6 C-4 5.34 -4 4.68 -4 4 C-3.01 4 -2.02 4 -1 4 C-0.67 2.68 -0.34 1.36 0 0 Z " fill="#111111" transform="translate(191,333)"/>
<path d="M0 0 C3 3.75 3 3.75 3 6 C0.125 6.125 0.125 6.125 -3 6 C-3.66 5.34 -4.32 4.68 -5 4 C-3.35 2.68 -1.7 1.36 0 0 Z " fill="#F0EFEB" transform="translate(221,116)"/>
<path d="M0 0 C1.98 0 3.96 0 6 0 C6 0.99 6 1.98 6 3 C7.98 3 9.96 3 12 3 C12 3.33 12 3.66 12 4 C6.72 4 1.44 4 -4 4 C-4 3.67 -4 3.34 -4 3 C-2.02 2.67 -0.04 2.34 2 2 C1.34 1.34 0.68 0.68 0 0 Z " fill="#8D7962" transform="translate(176,107)"/>
<path d="M0 0 C3.16115776 1.36983503 3.9927092 1.9890638 6 5 C3.36 5.33 0.72 5.66 -2 6 C-1.34 4.02 -0.68 2.04 0 0 Z " fill="#F1F1EE" transform="translate(168,116)"/>
<path d="M0 0 C0.33 0 0.66 0 1 0 C1 5.28 1 10.56 1 16 C0.01 16 -0.98 16 -2 16 C-1.34 10.72 -0.68 5.44 0 0 Z " fill="#A58D73" transform="translate(235,54)"/>
<path d="M0 0 C0.33 0 0.66 0 1 0 C1.336611 1.77021322 1.66917293 3.54119674 2 5.3125 C2.185625 6.29863281 2.37125 7.28476562 2.5625 8.30078125 C3 11 3 11 3 14 C2.01 14.33 1.02 14.66 0 15 C0 10.05 0 5.1 0 0 Z " fill="#C5C5C6" transform="translate(240,277)"/>
<path d="M0 0 C-0.34879632 3.25543229 -1.02133261 4.01873107 -3.5625 6.25 C-4.366875 6.8275 -5.17125 7.405 -6 8 C-6.66 7.34 -7.32 6.68 -8 6 C-7.0479279 4.99403703 -6.08812654 3.99538437 -5.125 3 C-4.59132812 2.443125 -4.05765625 1.88625 -3.5078125 1.3125 C-2 0 -2 0 0 0 Z " fill="#C2C3C4" transform="translate(258,248)"/>
<path d="M0 0 C0.33 0.66 0.66 1.32 1 2 C3.97 2 6.94 2 10 2 C10 2.33 10 2.66 10 3 C4.29309366 3.99250545 -1.21408489 4.10477512 -7 4 C-6.1028125 3.566875 -6.1028125 3.566875 -5.1875 3.125 C-2.80672208 1.95257974 -2.80672208 1.95257974 0 0 Z " fill="#877F6B" transform="translate(164,120)"/>
<path d="M0 0 C1.65 0.33 3.3 0.66 5 1 C3.95125002 3.62187494 3.35068687 4.79371361 0.875 6.25 C0.25625 6.4975 -0.3625 6.745 -1 7 C-0.67 4.69 -0.34 2.38 0 0 Z " fill="#F7F6F4" transform="translate(242,113)"/>
<path d="M0 0 C0.66 0.66 1.32 1.32 2 2 C1.98252112 4.59269983 1.86231408 7.0525154 1.625 9.625 C1.56828125 10.33140625 1.5115625 11.0378125 1.453125 11.765625 C1.31159079 13.51121361 1.15702613 15.25573673 1 17 C0.67 17 0.34 17 0 17 C-0.19493195 14.72979256 -0.38070418 12.45879711 -0.5625 10.1875 C-0.66691406 8.92292969 -0.77132812 7.65835938 -0.87890625 6.35546875 C-1 3 -1 3 0 0 Z " fill="#AC9377" transform="translate(255,48)"/>
<path d="M0 0 C4.50802601 1.25805377 7.4912812 2.90407165 11 6 C9.35 6.33 7.7 6.66 6 7 C4.02 4.69 2.04 2.38 0 0 Z " fill="#C7C8CA" transform="translate(239,261)"/>
<path d="M0 0 C1.32 0.33 2.64 0.66 4 1 C3.67 1.99 3.34 2.98 3 4 C-0.63 4 -4.26 4 -8 4 C-6 2 -6 2 -2.875 1.875 C-1.92625 1.91625 -0.9775 1.9575 0 2 C0 1.34 0 0.68 0 0 Z " fill="#0F0F0F" transform="translate(205,394)"/>
<path d="M0 0 C1.32 0.33 2.64 0.66 4 1 C3.67 3.31 3.34 5.62 3 8 C2.01 7.34 1.02 6.68 0 6 C-0.1875 2.875 -0.1875 2.875 0 0 Z " fill="#A11317" transform="translate(222,271)"/>
<path d="M0 0 C0.33 0.66 0.66 1.32 1 2 C1.928125 2.2165625 1.928125 2.2165625 2.875 2.4375 C5.36710392 3.09717457 6.3329446 4.08288629 8 6 C7.67 6.66 7.34 7.32 7 8 C6.34 7.34 5.68 6.68 5 6 C2.42938689 5.35232207 2.42938689 5.35232207 0 5 C0 3.35 0 1.7 0 0 Z " fill="#B2987B" transform="translate(254,29)"/>
<path d="M0 0 C2 2 2 2 2 6 C0.02 6.99 0.02 6.99 -2 8 C-1.125 1.125 -1.125 1.125 0 0 Z " fill="#3B1315" transform="translate(221,308)"/>
<path d="M0 0 C3.99996286 1.33332095 4.83782337 3.4957827 7 7 C6.01 7 5.02 7 4 7 C0 2.65714286 0 2.65714286 0 0 Z " fill="#4F4A44" transform="translate(257,39)"/>
</svg>
