<?xml version="1.0" encoding="UTF-8"?>
<svg version="1.1" xmlns="http://www.w3.org/2000/svg" width="127" height="129">
<path d="M0 0 C0.87398438 0.36222656 1.74796875 0.72445313 2.6484375 1.09765625 C15.76281207 7.04956471 25.83146835 17.15840765 32.3125 29.875 C32.63814941 30.51050781 32.96379883 31.14601562 33.29931641 31.80078125 C37.75593906 41.0153063 39.54735739 50.11392799 39.4375 60.3125 C39.42920166 61.31651855 39.42090332 62.32053711 39.41235352 63.35498047 C39.11873228 76.33074029 35.52885376 91.47114624 26 101 C25.5978125 102.485 25.5978125 102.485 25.1875 104 C24.795625 104.99 24.40375 105.98 24 107 C22.34610072 107.69773876 20.67681453 108.35928536 19 109 C17.2385567 110.22570479 15.51071124 111.50058792 13.8125 112.8125 C2.09333906 121.47244222 -9.76868806 125.5917703 -24.375 125.4375 C-25.37942139 125.43065186 -26.38384277 125.42380371 -27.41870117 125.41674805 C-35.26013521 125.24764516 -41.76583527 124.17927989 -49 121 C-49.87398437 120.63777344 -50.74796875 120.27554688 -51.6484375 119.90234375 C-57.39882697 117.29255161 -62.01190584 113.79750178 -66.7734375 109.671875 C-68.85245626 107.8852889 -68.85245626 107.8852889 -71.203125 107.44921875 C-72.09257813 107.22685547 -72.09257813 107.22685547 -73 107 C-73.74823118 105.40150611 -74.47660996 103.79025157 -75.09375 102.13671875 C-76.12861562 99.6967554 -77.44746556 97.6073434 -78.875 95.375 C-88.16371035 80.24899537 -90.62794165 62.24603037 -87.3515625 44.83203125 C-82.7496149 27.42722944 -72.39276775 13.22070721 -57.19921875 3.6875 C-39.97352434 -5.39858057 -18.12700983 -7.96648127 0 0 Z " fill="#000000" transform="translate(88,4)"/>
<path d="M0 0 C1.25039062 -0.01611328 2.50078125 -0.03222656 3.7890625 -0.04882812 C13.97873395 -0.05415745 25.84118281 0.82005565 33.625 8.3125 C34.625 11.625 34.625 11.625 34.625 14.3125 C35.285 14.3125 35.945 14.3125 36.625 14.3125 C39.60979194 18.78968792 40.625 22.95074093 40.625 28.3125 C31.56155327 30.99609037 23.02046231 31.9402754 13.625 32.3125 C13.01914063 31.36117187 12.41328125 30.40984375 11.7890625 29.4296875 C9.25014602 25.77254787 7.83202873 24.71484291 3.625 23.3125 C-2.65162408 22.56552986 -7.83206661 23.05195095 -13.375 26.3125 C-20.2569847 33.1944847 -20.73754334 39.86347423 -20.75 49.125 C-20.77449219 50.07181641 -20.79898438 51.01863281 -20.82421875 51.99414062 C-20.85067405 58.40073323 -20.10837937 63.9456749 -16.375 69.3125 C-10.61063783 73.00992659 -3.10402988 74.16697998 3.625 73.3125 C6.57218867 72.37969267 9.43572133 71.33828309 12.3046875 70.1875 C14.625 69.3125 14.625 69.3125 16.625 69.3125 C16.955 67.0025 17.285 64.6925 17.625 62.3125 C10.695 62.3125 3.765 62.3125 -3.375 62.3125 C-3.375 55.3825 -3.375 48.4525 -3.375 41.3125 C12.465 41.3125 28.305 41.3125 44.625 41.3125 C44.13 42.3025 44.13 42.3025 43.625 43.3125 C43.46779903 46.2273537 43.36644346 49.12189636 43.30859375 52.0390625 C43.2774221 53.33328629 43.2774221 53.33328629 43.24562073 54.65365601 C43.18013966 57.41485493 43.12124702 60.17615038 43.0625 62.9375 C43.0193134 64.80730172 42.97569907 66.67709362 42.93164062 68.546875 C42.82445976 73.13531728 42.72318825 77.72385683 42.625 82.3125 C41.965 82.3125 41.305 82.3125 40.625 82.3125 C40.625 82.9725 40.625 83.6325 40.625 84.3125 C27.43575067 93.65776217 14.74154985 96.49722772 -1.0625 96.5625 C-2.29162109 96.583125 -3.52074219 96.60375 -4.78710938 96.625 C-17.38984537 96.67877167 -28.30539926 94.01001649 -37.67578125 85.1328125 C-41.37192788 81.11908105 -44.11500204 77.30828496 -46.375 72.3125 C-47.10203125 71.61253906 -47.10203125 71.61253906 -47.84375 70.8984375 C-53.47746617 65.06351718 -52.80356968 55.13326713 -52.72363281 47.56665039 C-52.37782332 35.51424226 -50.4774986 25.67031528 -42.375 16.3125 C-41.76527344 15.59320313 -41.15554687 14.87390625 -40.52734375 14.1328125 C-29.14719531 1.74784602 -16.01990086 -0.04103458 0 0 Z " fill="#999999" transform="translate(65.375,14.6875)"/>
<path d="M0 0 C15.84 0 31.68 0 48 0 C47.67 0.66 47.34 1.32 47 2 C46.84279903 4.9148537 46.74144346 7.80939636 46.68359375 10.7265625 C46.66281265 11.58937836 46.64203156 12.45219421 46.62062073 13.34115601 C46.55513966 16.10235493 46.49624702 18.86365038 46.4375 21.625 C46.3943134 23.49480172 46.35069907 25.36459362 46.30664062 27.234375 C46.19945976 31.82281728 46.09818825 36.41135683 46 41 C45.34 41 44.68 41 44 41 C44 41.66 44 42.32 44 43 C31.26198495 52.02553946 19.34744767 55.3159327 4 54 C0.48828125 52.9765625 0.48828125 52.9765625 -2 52 C-2 51.34 -2 50.68 -2 50 C-2.94875 50.04125 -3.8975 50.0825 -4.875 50.125 C-8 50 -8 50 -10 48 C-8.68 48 -7.36 48 -6 48 C-6 47.34 -6 46.68 -6 46 C-5.34 45.814375 -4.68 45.62875 -4 45.4375 C0.36950028 43.34378112 3.42942836 40.26798083 7 37 C3.37 36.34 -0.26 35.68 -4 35 C-4 34.67 -4 34.34 -4 34 C0.95 33.67 5.9 33.34 11 33 C11 32.34 11 31.68 11 31 C13.97 30.01 16.94 29.02 20 28 C20.33 25.69 20.66 23.38 21 21 C14.07 21 7.14 21 0 21 C0 14.07 0 7.14 0 0 Z " fill="#A0A0A0" transform="translate(62,56)"/>
<path d="M0 0 C0.33 0 0.66 0 1 0 C1.33 2.97 1.66 5.94 2 9 C2.66 9 3.32 9 4 9 C4.4021875 7.7934375 4.4021875 7.7934375 4.8125 6.5625 C5.204375 5.716875 5.59625 4.87125 6 4 C9.53826255 2.82057915 12.34148726 2.88710811 16.07421875 2.90234375 C17.09996758 2.90446617 17.09996758 2.90446617 18.1464386 2.90663147 C20.32683722 2.91222124 22.50713251 2.92477178 24.6875 2.9375 C26.16731622 2.94251633 27.64713406 2.947079 29.12695312 2.95117188 C32.75133557 2.96218729 36.3756577 2.97944488 40 3 C36.26220118 6.90869233 33.4287397 8.97485404 28.3125 10.8125 C26.60513672 11.44091797 26.60513672 11.44091797 24.86328125 12.08203125 C22 13 22 13 20 13 C20.33 15.64 20.66 18.28 21 21 C14.07 21 7.14 21 0 21 C0 14.07 0 7.14 0 0 Z " fill="#8C8C8C" transform="translate(62,56)"/>
<path d="M0 0 C15.51 0 31.02 0 47 0 C46.67 0.66 46.34 1.32 46 2 C45.84777027 3.66565749 45.75082785 5.33656496 45.68359375 7.0078125 C45.62075195 8.48701172 45.62075195 8.48701172 45.55664062 9.99609375 C45.51732422 11.02863281 45.47800781 12.06117187 45.4375 13.125 C45.37272461 14.68541016 45.37272461 14.68541016 45.30664062 16.27734375 C45.2003712 18.85142528 45.09833417 21.42560508 45 24 C41.89448334 24 40.64738916 23.4606285 38 22 C38 21.34 38 20.68 38 20 C37.113125 20.061875 36.22625 20.12375 35.3125 20.1875 C31.59493626 19.97707186 30.05970359 19.01296289 27 17 C24.80869466 16.30420546 24.80869466 16.30420546 23 16 C23 15.01 23 14.02 23 13 C23.99902344 12.43410156 24.99804688 11.86820313 26.02734375 11.28515625 C27.33077746 10.5443558 28.63416025 9.80346575 29.9375 9.0625 C30.59685547 8.68931641 31.25621094 8.31613281 31.93554688 7.93164062 C35.15832833 6.23037187 35.15832833 6.23037187 38 4 C27.44 4 16.88 4 6 4 C5.01 5.98 4.02 7.96 3 10 C2.01 10.495 2.01 10.495 1 11 C0 9 0 9 0 0 Z " fill="#A4A4A4" transform="translate(63,56)"/>
<path d="M0 0 C0.33 0 0.66 0 1 0 C1.19822873 5.8713824 1.34314324 11.74080608 1.43945312 17.61474609 C1.47960859 19.61118505 1.53414767 21.60738983 1.60351562 23.60302734 C1.70092805 26.47812639 1.7460019 29.35011073 1.78125 32.2265625 C1.82254028 33.11429352 1.86383057 34.00202454 1.90637207 34.91665649 C1.90906946 38.66832386 1.89005381 41.03016164 -0.71516418 43.86891174 C-2.74887694 45.41786887 -4.77814944 46.7389595 -7 48 C-8.11761719 48.66386719 -9.23523438 49.32773438 -10.38671875 50.01171875 C-27.70057952 58.80183268 -48.32780161 61.39698704 -67.28125 56.03515625 C-78.43685252 51.78769265 -86.62411984 44.38735267 -92.1875 33.8828125 C-93 32 -93 32 -93 30 C-89.25817377 31.24727541 -89.10507255 32.22476209 -87.3125 35.625 C-82.00477148 44.74440611 -74.8424424 49.43965462 -65 53 C-58.89320442 54.45848573 -52.74633645 54.26359862 -46.5 54.3125 C-45.29601562 54.34150391 -44.09203125 54.37050781 -42.8515625 54.40039062 C-31.82154307 54.47748216 -22.09247269 52.01924501 -12.375 46.8125 C-9.55944073 45.32168779 -7.02468586 44.00822862 -4 43 C-4 42.34 -4 41.68 -4 41 C-3.34 41 -2.68 41 -2 41 C-2.01047363 39.82904785 -2.02094727 38.6580957 -2.03173828 37.45166016 C-2.06787497 33.11689295 -2.09087733 28.78213911 -2.10986328 24.44726562 C-2.11993534 22.56931318 -2.13359362 20.69137647 -2.15087891 18.81347656 C-2.17507453 16.1177991 -2.18647083 13.42232854 -2.1953125 10.7265625 C-2.20563507 9.88380768 -2.21595764 9.04105286 -2.22659302 8.17276001 C-2.22699144 6.11378753 -2.12257588 4.05532065 -2 2 C-1.34 1.34 -0.68 0.68 0 0 Z " fill="#323232" transform="translate(110,56)"/>
<path d="M0 0 C6.75024105 4.6876674 9.11979606 10.37016054 10.8984375 18.08203125 C10.93195313 18.71496094 10.96546875 19.34789063 11 20 C8.58090397 22.41909603 7.34812651 22.49473737 4.01953125 23.0703125 C2.5200293 23.33134766 2.5200293 23.33134766 0.99023438 23.59765625 C-0.05841797 23.77167969 -1.10707031 23.94570313 -2.1875 24.125 C-3.73147461 24.39763672 -3.73147461 24.39763672 -5.30664062 24.67578125 C-10.60955503 25.57941689 -15.62113855 26.22824023 -21 26 C-21.556875 24.88625 -22.11375 23.7725 -22.6875 22.625 C-24.06005141 20.27409014 -24.8404567 19.10792635 -27.125 17.5625 C-32.73443216 16.4650024 -37.92147709 16.30715903 -43.375 18.125 C-48.26247541 21.61605387 -50.06650247 25.42616827 -51.25 31.1875 C-52.76018884 41.3194942 -52.3366065 48.66497557 -48 58 C-47.67 58.99 -47.34 59.98 -47 61 C-48.86132812 60.7421875 -48.86132812 60.7421875 -51 60 C-55.39775086 54.08127427 -55.61744255 47.08570045 -55.5 40 C-55.51546875 39.06671875 -55.5309375 38.1334375 -55.546875 37.171875 C-55.50283712 29.28909523 -53.60324077 23.2197978 -48.625 17.0625 C-43.67139044 13.17037821 -38.7018153 12.48685738 -32.5390625 12.6171875 C-28.37142455 13.24553907 -24.98883797 15.03313878 -22 18 C-20.78125 20.67578125 -20.78125 20.67578125 -20 23 C-10.96504964 21.83977413 -1.97441415 20.57094028 7 19 C6.52188823 17.22888156 6.0424722 15.45811517 5.5625 13.6875 C5.29566406 12.70136719 5.02882812 11.71523438 4.75390625 10.69921875 C4.21920575 8.78482474 3.62855462 6.88566385 3 5 C2.34 5 1.68 5 1 5 C0.505 2.525 0.505 2.525 0 0 Z " fill="#2A2A2A" transform="translate(99,24)"/>
<path d="M0 0 C1.30066406 0.00064453 2.60132813 0.00128906 3.94140625 0.00195312 C14.38840918 0.05036869 14.38840918 0.05036869 19.25 1.1875 C19.25 2.1775 19.25 3.1675 19.25 4.1875 C18.26 4.5175 17.27 4.8475 16.25 5.1875 C15.92 7.1675 15.59 9.1475 15.25 11.1875 C14.59 11.1875 13.93 11.1875 13.25 11.1875 C12.125 5.4375 12.125 5.4375 13.25 3.1875 C11.991875 3.538125 10.73375 3.88875 9.4375 4.25 C6.30283612 5.12359485 5.46717892 5.25989297 2.25 4.1875 C1.92 4.8475 1.59 5.5075 1.25 6.1875 C2.24 6.1875 3.23 6.1875 4.25 6.1875 C4.25 6.8475 4.25 7.5075 4.25 8.1875 C-0.7 7.1975 -0.7 7.1975 -5.75 6.1875 C-5.75 5.5275 -5.75 4.8675 -5.75 4.1875 C-16.18265221 3.12774978 -25.48247866 6.36708835 -33.75 12.75 C-35.09384713 13.88348432 -36.42847146 15.02807164 -37.75 16.1875 C-38.760625 16.991875 -39.77125 17.79625 -40.8125 18.625 C-41.451875 19.140625 -42.09125 19.65625 -42.75 20.1875 C-41.57560221 13.47665548 -36.93162564 10.08621511 -31.75 6.1875 C-21.95616372 -0.14311661 -11.29880078 -0.10766159 0 0 Z " fill="#BFBFBF" transform="translate(65.75,14.8125)"/>
<path d="M0 0 C3.5625 0.1875 3.5625 0.1875 6.5625 1.1875 C8.22612417 1.53570041 9.89245171 1.87154492 11.5625 2.1875 C11.8925 1.5275 12.2225 0.8675 12.5625 0.1875 C13.57386941 2.91819741 13.60807718 4.04751293 12.6875 6.875 C11.5625 9.1875 11.5625 9.1875 10.5625 10.1875 C8.50294652 10.31419642 6.43841382 10.36334229 4.375 10.375 C3.24707031 10.38917969 2.11914062 10.40335938 0.95703125 10.41796875 C-2.49663901 10.18348481 -5.21837298 9.42337122 -8.4375 8.1875 C-8.4375 7.5275 -8.4375 6.8675 -8.4375 6.1875 C-9.38625 6.22875 -10.335 6.27 -11.3125 6.3125 C-14.4375 6.1875 -14.4375 6.1875 -16.4375 4.1875 C-15.28121094 4.00574219 -15.28121094 4.00574219 -14.1015625 3.8203125 C-13.09867188 3.65273437 -12.09578125 3.48515625 -11.0625 3.3125 C-9.56589844 3.06886719 -9.56589844 3.06886719 -8.0390625 2.8203125 C-4.35223981 1.92351779 -4.03462381 0.22007039 0 0 Z " fill="#D3D3D3" transform="translate(68.4375,99.8125)"/>
<path d="M0 0 C15.51 0 31.02 0 47 0 C46.67 0.66 46.34 1.32 46 2 C44.92854736 2.03758423 44.92854736 2.03758423 43.83544922 2.07592773 C36.95639605 2.32030203 30.07904156 2.59346358 23.20166016 2.88085938 C20.55377568 2.97939282 17.91095194 3.04254094 15.26171875 3.078125 C14.04097656 3.11421875 12.82023437 3.1503125 11.5625 3.1875 C10.53253906 3.20167969 9.50257812 3.21585938 8.44140625 3.23046875 C5.66478927 3.8032014 5.66478927 3.8032014 4.27734375 6.98828125 C3.85582031 7.98214844 3.43429688 8.97601563 3 10 C2.01 10.495 2.01 10.495 1 11 C0 9 0 9 0 0 Z " fill="#BFBFBF" transform="translate(63,56)"/>
<path d="M0 0 C0 3.63 0 7.26 0 11 C-5.28 9.02 -10.56 7.04 -16 5 C-16 4.34 -16 3.68 -16 3 C-14.27318563 2.49193553 -12.54342021 1.99389533 -10.8125 1.5 C-9.84957031 1.2215625 -8.88664062 0.943125 -7.89453125 0.65625 C-5 0 -5 0 0 0 Z " fill="#C0C0C0" transform="translate(43,56)"/>
<path d="M0 0 C0 1.98 0 3.96 0 6 C-5.84340558 7.24327778 -10.26696495 6.57300962 -16 5 C-16 3.68 -16 2.36 -16 1 C-14.0852312 0.63571223 -12.16807707 0.28394694 -10.25 -0.0625 C-9.18265625 -0.25972656 -8.1153125 -0.45695312 -7.015625 -0.66015625 C-4.25228095 -0.97156937 -2.59053383 -0.8991416 0 0 Z " fill="#CACACA" transform="translate(108,68)"/>
<path d="M0 0 C0.33 0 0.66 0 1 0 C1.24984036 13.82450015 0.6516039 27.27104257 -1 41 C-1.33 41 -1.66 41 -2 41 C-2.0493521 35.48243524 -2.08569662 29.96499829 -2.10986328 24.44726562 C-2.11993534 22.56931318 -2.13359362 20.69137647 -2.15087891 18.81347656 C-2.17507453 16.1177991 -2.18647083 13.42232854 -2.1953125 10.7265625 C-2.20563507 9.88380768 -2.21595764 9.04105286 -2.22659302 8.17276001 C-2.22699144 6.11378753 -2.12257588 4.05532065 -2 2 C-1.34 1.34 -0.68 0.68 0 0 Z " fill="#464646" transform="translate(110,56)"/>
<path d="M0 0 C2.92660426 2.92660426 2.29452967 6.07623342 2.375 10 C2.63692072 17.0733476 3.81931893 22.61213219 7 29 C7.33 29.99 7.66 30.98 8 32 C5.46206719 31.64528892 4.32075015 31.423617 2.74316406 29.34008789 C-0.13278033 22.92667444 -0.48978318 17.40504587 -0.25 10.4375 C-0.23195312 9.42880859 -0.21390625 8.42011719 -0.1953125 7.38085938 C-0.14865249 4.91954395 -0.0832157 2.46030429 0 0 Z " fill="#333333" transform="translate(44,53)"/>
<path d="M0 0 C3.74182623 1.24727541 3.89492745 2.22476209 5.6875 5.625 C9.853068 12.85014152 15.33361025 17.74178436 23 21 C22.67 21.66 22.34 22.32 22 23 C15.32437816 22.23843173 11.4760731 17.66913056 7 13 C3.78125178 8.93455295 1.02877354 5.1438677 0 0 Z " fill="#393939" transform="translate(17,86)"/>
<path d="M0 0 C1.61340536 0.20886486 3.21687388 0.49520096 4.8125 0.8125 C5.8128125 1.00328125 6.813125 1.1940625 7.84375 1.390625 C8.8853125 1.59171875 9.926875 1.7928125 11 2 C19.65276506 3.62820848 28.20898382 4.50583045 37 5 C37 5.33 37 5.66 37 6 C10.58671849 6.66007816 10.58671849 6.66007816 1 3 C0.34 2.34 -0.32 1.68 -1 1 C-0.67 0.67 -0.34 0.34 0 0 Z " fill="#1D1D1D" transform="translate(39,108)"/>
<path d="M0 0 C6.6 0 13.2 0 20 0 C20 0.99 20 1.98 20 3 C19.01 3.33 18.02 3.66 17 4 C16.67 5.98 16.34 7.96 16 10 C15.34 10 14.68 10 14 10 C12.875 4.25 12.875 4.25 14 2 C12.80375 2.37125 11.6075 2.7425 10.375 3.125 C6.34606752 4.15732434 3.84669696 3.73101363 0 2 C0 1.34 0 0.68 0 0 Z " fill="#D8D8D8" transform="translate(65,16)"/>
<path d="M0 0 C6.84536127 4.7537231 9.1773824 10.39872464 10.703125 18.27734375 C10.80109375 18.84582031 10.8990625 19.41429688 11 20 C8.625 20.625 8.625 20.625 6 21 C5.34 20.34 4.68 19.68 4 19 C4.99 19 5.98 19 7 19 C6.52188823 17.22888156 6.0424722 15.45811517 5.5625 13.6875 C5.29566406 12.70136719 5.02882813 11.71523438 4.75390625 10.69921875 C4.21920575 8.78482474 3.62855462 6.88566385 3 5 C2.34 5 1.68 5 1 5 C0.67 3.35 0.34 1.7 0 0 Z " fill="#212121" transform="translate(99,24)"/>
<path d="M0 0 C-1.24509301 3.73527902 -2.24168985 3.93057641 -5.625 5.75 C-10.53884922 8.55993102 -14.24263255 11.79473444 -18 16 C-18.33 15.34 -18.66 14.68 -19 14 C-16.56527949 8.31898548 -11.21231113 3.93490086 -5.99609375 0.79296875 C-4 0 -4 0 0 0 Z " fill="#D0D0D0" transform="translate(42,19)"/>
<path d="M0 0 C0.33 0 0.66 0 1 0 C1.23373107 3.37381807 1.37483519 6.74555001 1.5 10.125 C1.56703125 11.07632813 1.6340625 12.02765625 1.703125 13.0078125 C1.89618861 19.9581024 1.89618861 19.9581024 -0.67578125 22.94824219 C-3.90997353 25.4158889 -7.35255627 27.22038389 -11 29 C-10.3125 26.625 -10.3125 26.625 -9 24 C-6.375 22.6875 -6.375 22.6875 -4 22 C-4 21.34 -4 20.68 -4 20 C-3.01 20 -2.02 20 -1 20 C-1.01160156 19.14277344 -1.02320312 18.28554687 -1.03515625 17.40234375 C-1.0818041 11.49139448 -1.08249916 5.81843296 0 0 Z " fill="#232323" transform="translate(110,77)"/>
<path d="M0 0 C0 1.32 0 2.64 0 4 C5.28 4.33 10.56 4.66 16 5 C16 6.98 16 8.96 16 11 C12.89448334 11 11.64738916 10.4606285 9 9 C9 8.34 9 7.68 9 7 C8.113125 7.061875 7.22625 7.12375 6.3125 7.1875 C2.59493626 6.97707186 1.05970359 6.01296289 -2 4 C-4.19130534 3.30420546 -4.19130534 3.30420546 -6 3 C-6 2.34 -6 1.68 -6 1 C-3 0 -3 0 0 0 Z " fill="#B7B7B7" transform="translate(92,69)"/>
<path d="M0 0 C-0.16015625 1.828125 -0.16015625 1.828125 -1 4 C-7.57157094 8.11399828 -15.27334429 10.39285065 -23 9 C-23.99 8.34 -24.98 7.68 -26 7 C-21.05 6.67 -16.1 6.34 -11 6 C-11 5.34 -11 4.68 -11 4 C-9.5437455 3.32880451 -8.08492133 2.66318193 -6.625 2 C-5.81289062 1.62875 -5.00078125 1.2575 -4.1640625 0.875 C-2 0 -2 0 0 0 Z " fill="#C6C6C6" transform="translate(84,83)"/>
<path d="M0 0 C1.62463842 -0.05395478 3.24978541 -0.09277195 4.875 -0.125 C5.77992187 -0.14820313 6.68484375 -0.17140625 7.6171875 -0.1953125 C10 0 10 0 12 2 C11.071875 2.20625 10.14375 2.4125 9.1875 2.625 C5.1634067 4.36088338 4.67232483 6.07003666 3 10 C2.01 10.495 2.01 10.495 1 11 C-0.20272819 8.59454362 -0.10071472 7.05003047 -0.0625 4.375 C-0.05347656 3.55773438 -0.04445312 2.74046875 -0.03515625 1.8984375 C-0.02355469 1.27195313 -0.01195312 0.64546875 0 0 Z " fill="#C4C4C4" transform="translate(63,56)"/>
<path d="M0 0 C5.61 0 11.22 0 17 0 C17 0.66 17 1.32 17 2 C18.32 1.67 19.64 1.34 21 1 C20.01 2.485 20.01 2.485 19 4 C16.171875 4.36328125 16.171875 4.36328125 12.75 4.3125 C11.63109375 4.30863281 10.5121875 4.30476563 9.359375 4.30078125 C5.95542515 3.996009 3.18413703 3.21093696 0 2 C0 1.34 0 0.68 0 0 Z " fill="#CCCCCC" transform="translate(60,106)"/>
<path d="M0 0 C6.93 0 13.86 0 21 0 C20.67 2.31 20.34 4.62 20 7 C19.67 7 19.34 7 19 7 C19 5.35 19 3.7 19 2 C13.06 2 7.12 2 1 2 C0.67 1.34 0.34 0.68 0 0 Z " fill="#2A2A2A" transform="translate(62,77)"/>
<path d="M0 0 C3.95122922 0.27566715 5.78042562 0.82714357 8.9375 3.3125 C11 6 11 6 11.125 8.0625 C9.57147702 10.7380118 7.49042258 12.2120043 5 14 C5.495 13.1028125 5.495 13.1028125 6 12.1875 C7.20787988 9.94613529 7.20787988 9.94613529 7 7 C5.46374231 5.3568964 5.46374231 5.3568964 3.5 3.875 C2.31967002 2.93354632 1.14922232 1.97918433 0 1 C0 0.67 0 0.34 0 0 Z " fill="#ACACAC" transform="translate(87,18)"/>
<path d="M0 0 C2.64 0.33 5.28 0.66 8 1 C8 1.66 8 2.32 8 3 C13.94 3.66 19.88 4.32 26 5 C26 5.33 26 5.66 26 6 C6.65331553 6.93012906 6.65331553 6.93012906 0 1 C0 0.67 0 0.34 0 0 Z " fill="#A8A8A8" transform="translate(52,105)"/>
<path d="M0 0 C1.670625 0.061875 1.670625 0.061875 3.375 0.125 C1.375 3.125 1.375 3.125 -1.0078125 3.63671875 C-2.36519531 3.72373047 -2.36519531 3.72373047 -3.75 3.8125 C-5.11511719 3.91111328 -5.11511719 3.91111328 -6.5078125 4.01171875 C-7.55582031 4.06779297 -7.55582031 4.06779297 -8.625 4.125 C-8.625 4.785 -8.625 5.445 -8.625 6.125 C-11.5 6.25 -11.5 6.25 -14.625 6.125 C-15.285 5.465 -15.945 4.805 -16.625 4.125 C-15.46871094 3.94324219 -15.46871094 3.94324219 -14.2890625 3.7578125 C-13.28617188 3.59023437 -12.28328125 3.42265625 -11.25 3.25 C-9.75339844 3.00636719 -9.75339844 3.00636719 -8.2265625 2.7578125 C-4.38906563 1.82436731 -4.26428392 0.14704427 0 0 Z " fill="#C2C2C2" transform="translate(68.625,99.875)"/>
<path d="M0 0 C4.19360449 0.67097672 7.40334352 2.8558394 11 5 C11 5.33 11 5.66 11 6 C0.44191344 6.18451025 0.44191344 6.18451025 -4 5 C-2.68 4.67 -1.36 4.34 0 4 C0 2.68 0 1.36 0 0 Z " fill="#8B8B8B" transform="translate(49,105)"/>
<path d="M0 0 C0.99 0.66 1.98 1.32 3 2 C0.23062417 2.52992381 -2.54003079 3.0492458 -5.3125 3.5625 C-6.09818359 3.71396484 -6.88386719 3.86542969 -7.69335938 4.02148438 C-8.45068359 4.16005859 -9.20800781 4.29863281 -9.98828125 4.44140625 C-10.68477783 4.57232666 -11.38127441 4.70324707 -12.09887695 4.83813477 C-14 5 -14 5 -17 4 C-12.5065514 -0.4934486 -5.98044546 -0.39869636 0 0 Z " fill="#1D1D1D" transform="translate(105,44)"/>
<path d="M0 0 C-0.33 1.65 -0.66 3.3 -1 5 C-1.33 4.34 -1.66 3.68 -2 3 C-3.6396875 3.309375 -3.6396875 3.309375 -5.3125 3.625 C-9 4 -9 4 -12 2 C-7.8794254 0.00214565 -4.54805635 -0.17835515 0 0 Z " fill="#DADADA" transform="translate(79,103)"/>
<path d="M0 0 C0.33 0 0.66 0 1 0 C1.08107583 1.93681161 1.13922475 3.8745934 1.1875 5.8125 C1.23970703 7.43091797 1.23970703 7.43091797 1.29296875 9.08203125 C1 12 1 12 -0.51171875 13.88671875 C-1.00285156 14.25410156 -1.49398438 14.62148437 -2 15 C-2.05406122 13.06280622 -2.09282025 11.12518079 -2.125 9.1875 C-2.14820313 8.10855469 -2.17140625 7.02960937 -2.1953125 5.91796875 C-2 3 -2 3 0 0 Z " fill="#ADADAD" transform="translate(16,50)"/>
<path d="M0 0 C0 2.97 0 5.94 0 9 C-0.33 7.68 -0.66 6.36 -1 5 C-2.0725 5.350625 -3.145 5.70125 -4.25 6.0625 C-8.92307692 7.23076923 -8.92307692 7.23076923 -12 6 C-10.35 5.67 -8.7 5.34 -7 5 C-6.67 4.01 -6.34 3.02 -6 2 C-1.78947368 0 -1.78947368 0 0 0 Z " fill="#ABABAB" transform="translate(44,51)"/>
<path d="M0 0 C0.99 0 1.98 0 3 0 C3.66 0.99 4.32 1.98 5 3 C4.24451463 5.8475987 3.31613642 8.36772716 2 11 C1.34 11 0.68 11 0 11 C0 7.37 0 3.74 0 0 Z " fill="#A9A9A9" transform="translate(63,65)"/>
<path d="M0 0 C-2 3 -2 3 -5 4 C-7.33299825 4.03954234 -9.66708189 4.04401732 -12 4 C-12.33 3.01 -12.66 2.02 -13 1 C-8.62426048 0.40667939 -4.42471556 -0.13827236 0 0 Z " fill="#2A2A2A" transform="translate(90,46)"/>
<path d="M0 0 C4.95942067 2.94884472 6.04021274 6.17689305 7.51953125 11.46484375 C8.00744488 14.03928231 8.0888343 16.38640141 8 19 C6.38274466 15.99049877 5.32417377 13.02896392 4.375 9.75 C4.11460938 8.85796875 3.85421875 7.9659375 3.5859375 7.046875 C3.39257812 6.37140625 3.19921875 5.6959375 3 5 C2.34 5 1.68 5 1 5 C0.67 3.35 0.34 1.7 0 0 Z " fill="#525252" transform="translate(99,24)"/>
<path d="M0 0 C0.99 0.33 1.98 0.66 3 1 C2.67 1.99 2.34 2.98 2 4 C-2.95 4.33 -7.9 4.66 -13 5 C-12.67 4.34 -12.34 3.68 -12 3 C-10.0390625 2.65625 -10.0390625 2.65625 -7.625 2.5 C-4.10348536 2.27058537 -3.07060704 2.04707136 0 0 Z " fill="#B8B8B8" transform="translate(105,64)"/>
<path d="M0 0 C1.0169313 2.65498232 1.13022151 3.69155375 0.00390625 6.359375 C-0.47175781 7.14828125 -0.94742187 7.9371875 -1.4375 8.75 C-2.14712891 9.94882812 -2.14712891 9.94882812 -2.87109375 11.171875 C-3.24363281 11.77515625 -3.61617187 12.3784375 -4 13 C-5.45696268 8.56066405 -4.06135016 6.12270033 -2 2 C-1.34 1.34 -0.68 0.68 0 0 Z " fill="#B3B3B3" transform="translate(23,31)"/>
<path d="M0 0 C4.62 0 9.24 0 14 0 C13 2 13 2 9.8125 3.25 C5.68703358 4.06156716 3.78985917 3.66384061 0 2 C0 1.34 0 0.68 0 0 Z " fill="#E0E0E0" transform="translate(65,16)"/>
<path d="M0 0 C2.31 0 4.62 0 7 0 C6.67 0.99 6.34 1.98 6 3 C6.99 3 7.98 3 9 3 C9 3.66 9 4.32 9 5 C5.7 4.34 2.4 3.68 -1 3 C-0.67 2.01 -0.34 1.02 0 0 Z " fill="#C1C1C1" transform="translate(61,18)"/>
<path d="M0 0 C3.63 0.66 7.26 1.32 11 2 C11 2.66 11 3.32 11 4 C6.45194365 4.17835515 3.1205746 3.99785435 -1 2 C-0.67 1.34 -0.34 0.68 0 0 Z " fill="#2A2A2A" transform="translate(39,108)"/>
<path d="M0 0 C2.12636813 0.28151916 4.25108528 0.57553263 6.375 0.875 C7.55835937 1.03742188 8.74171875 1.19984375 9.9609375 1.3671875 C13 2 13 2 15 4 C9.5610835 4.21755666 5.12919186 4.10428384 0 2 C0 1.34 0 0.68 0 0 Z " fill="#BFBFBF" transform="translate(60,106)"/>
<path d="M0 0 C4.12751449 0.60698743 7.3321148 2.03810791 11 4 C10.67 4.66 10.34 5.32 10 6 C5.16743695 5.58578031 3.17320782 3.53586014 0 0 Z " fill="#3A3A3A" transform="translate(29,103)"/>
<path d="M0 0 C1.6045556 0.14148989 3.20863767 0.28835686 4.8125 0.4375 C5.70582031 0.51871094 6.59914063 0.59992187 7.51953125 0.68359375 C10 1 10 1 13 2 C12.67 3.32 12.34 4.64 12 6 C10.948125 5.54625 9.89625 5.0925 8.8125 4.625 C5.89174547 3.37239999 2.95705332 2.16489979 0 1 C0 0.67 0 0.34 0 0 Z " fill="#B1B1B1" transform="translate(30,61)"/>
<path d="M0 0 C0 0.99 0 1.98 0 3 C-3.90748231 6.19703098 -7.07008655 6.28999491 -12 6 C-11.443125 5.731875 -10.88625 5.46375 -10.3125 5.1875 C-7.92494196 3.99705859 -7.92494196 3.99705859 -5.4375 2.4375 C-3 1 -3 1 0 0 Z " fill="#ACACAC" transform="translate(68,97)"/>
<path d="M0 0 C1.45792884 -0.05399736 2.91642712 -0.09279177 4.375 -0.125 C5.18710938 -0.14820313 5.99921875 -0.17140625 6.8359375 -0.1953125 C9 0 9 0 11 2 C7.37 2.33 3.74 2.66 0 3 C0 2.01 0 1.02 0 0 Z " fill="#DDDDDD" transform="translate(64,56)"/>
<path d="M0 0 C0.66 0.33 1.32 0.66 2 1 C-3.14285714 6.57142857 -3.14285714 6.57142857 -7 7 C-5.55609075 3.19333016 -3.65047197 1.73397418 0 0 Z " fill="#2E2E2E" transform="translate(99,102)"/>
<path d="M0 0 C-1 3 -1 3 -3.9375 4.75 C-5.4534375 5.36875 -5.4534375 5.36875 -7 6 C-7.66 5.67 -8.32 5.34 -9 5 C-4.5 0 -4.5 0 0 0 Z " fill="#DBDBDB" transform="translate(42,19)"/>
<path d="M0 0 C3 1 3 1 4.16796875 2.84765625 C4.50441406 3.57855469 4.84085938 4.30945313 5.1875 5.0625 C5.53167969 5.79597656 5.87585938 6.52945313 6.23046875 7.28515625 C6.48441406 7.85105469 6.73835938 8.41695312 7 9 C5.109375 8.68359375 5.109375 8.68359375 3 8 C0 2.96428571 0 2.96428571 0 0 Z " fill="#4F4F4F" transform="translate(17,86)"/>
<path d="M0 0 C2.97 0 5.94 0 9 0 C8.67 0.99 8.34 1.98 8 3 C5.36 2.67 2.72 2.34 0 2 C0 1.34 0 0.68 0 0 Z " fill="#DADADA" transform="translate(99,70)"/>
<path d="M0 0 C2.875 0.1875 2.875 0.1875 6 1 C7.375 3.5625 7.375 3.5625 8 6 C4.08597051 4.73058503 2.20927127 3.48832306 0 0 Z " fill="#CCCCCC" transform="translate(87,18)"/>
<path d="M0 0 C0 0.99 0 1.98 0 3 C-2.64 3 -5.28 3 -8 3 C-8.33 2.34 -8.66 1.68 -9 1 C-5.846632 0.29925156 -3.27275026 0 0 0 Z " fill="#D6D6D6" transform="translate(43,58)"/>
<path d="M0 0 C-0.33 1.32 -0.66 2.64 -1 4 C-3.31 4.33 -5.62 4.66 -8 5 C-5.81209839 1.71814759 -4.05191042 0 0 0 Z " fill="#8F8F8F" transform="translate(33,54)"/>
<path d="M0 0 C1.35439668 2.70879335 1.06501451 5.00933268 1 8 C-0.98 8.99 -0.98 8.99 -3 10 C-2.25 3.375 -2.25 3.375 0 0 Z " fill="#7F7F7F" transform="translate(18,38)"/>
<path d="M0 0 C-0.99 0 -1.98 0 -3 0 C-3 1.32 -3 2.64 -3 4 C-4.65 4 -6.3 4 -8 4 C-8 3.34 -8 2.68 -8 2 C-7.34 2 -6.68 2 -6 2 C-6 1.34 -6 0.68 -6 0 C-3.50907189 -1.24546405 -2.58919267 -0.7767578 0 0 Z " fill="#ADADAD" transform="translate(52,105)"/>
<path d="M0 0 C2.99324263 1.0975223 3.84610901 1.67682892 5.25 4.625 C5.4975 5.40875 5.745 6.1925 6 7 C5.01 7 4.02 7 3 7 C0 2.77777778 0 2.77777778 0 0 Z " fill="#3C3C3C" transform="translate(73,40)"/>
<path d="M0 0 C4.875 2.625 4.875 2.625 6 6 C4.125 5.8125 4.125 5.8125 2 5 C0.75 2.4375 0.75 2.4375 0 0 Z " fill="#484848" transform="translate(46,79)"/>
</svg>
