<?xml version="1.0" encoding="UTF-8"?>
<svg version="1.1" xmlns="http://www.w3.org/2000/svg" width="110" height="111">
<path d="M0 0 C1.21913086 -0.0309375 1.21913086 -0.0309375 2.46289062 -0.0625 C14.71305709 -0.14046446 24.81289232 5.08129018 33.734375 13.15234375 C42.00310996 21.49879239 45.40268186 30.88982243 45.60864258 42.55224609 C45.59341553 43.73125488 45.57818848 44.91026367 45.5625 46.125 C45.55436279 47.35428223 45.54622559 48.58356445 45.5378418 49.85009766 C45.17199923 62.76853856 41.25329118 70.63173169 32.8125 80.25 C23.33174766 88.90633909 13.79976649 92.16559733 1.0625 92 C-0.79822144 91.9834436 -0.79822144 91.9834436 -2.6965332 91.96655273 C-12.39750316 91.67637186 -19.36572393 90.3310918 -27.1875 84.25 C-28.03828125 83.59773438 -28.8890625 82.94546875 -29.765625 82.2734375 C-37.18564843 75.71335056 -43.52971865 64.9826777 -44.38037109 54.98266602 C-44.88570558 39.43520822 -44.38054222 26.23343927 -33.1875 14.25 C-23.73003002 4.36685133 -13.464426 0.08343564 0 0 Z " fill="#000100" transform="translate(54.1875,8.75)"/>
<path d="M0 0 C2.17768715 1.05371959 3.41898895 2.05743871 4.9375 3.9375 C5.2675 4.9275 5.5975 5.9175 5.9375 6.9375 C7.2575 6.9375 8.5775 6.9375 9.9375 6.9375 C10.5975 5.9475 11.2575 4.9575 11.9375 3.9375 C13.2575 3.9375 14.5775 3.9375 15.9375 3.9375 C18.11529782 7.20419673 18.44512687 9.1625161 19 13 C19.52812211 17.10696658 19.52812211 17.10696658 20.9375 20.9375 C21.741875 21.246875 22.54625 21.55625 23.375 21.875 C25.9375 22.9375 25.9375 22.9375 27.9375 25.9375 C28.42863738 30.94710123 27.54625673 34.46825612 25.671875 39.00390625 C24.68660048 41.5981131 24.28061357 44.19259144 23.9375 46.9375 C24.5975 46.9375 25.2575 46.9375 25.9375 46.9375 C26.4325 49.9075 26.4325 49.9075 26.9375 52.9375 C27.9275 52.9375 28.9175 52.9375 29.9375 52.9375 C29.9375 54.2575 29.9375 55.5775 29.9375 56.9375 C28.9475 56.9375 27.9575 56.9375 26.9375 56.9375 C26.9375 56.2775 26.9375 55.6175 26.9375 54.9375 C24.2975 54.9375 21.6575 54.9375 18.9375 54.9375 C19.2675 55.9275 19.5975 56.9175 19.9375 57.9375 C21.91795559 58.59929847 21.91795559 58.59929847 23.9375 58.9375 C24.9375 59.9375 24.9375 59.9375 25.125 62.375 C24.9375 64.9375 24.9375 64.9375 22.9375 66.9375 C21.6175 66.9375 20.2975 66.9375 18.9375 66.9375 C18.6075 66.2775 18.2775 65.6175 17.9375 64.9375 C17.2775 65.5975 16.6175 66.2575 15.9375 66.9375 C13.5 67.25 13.5 67.25 10.9375 66.9375 C9.91730427 65.9581121 8.91600195 64.95854551 7.9375 63.9375 C6.6175 63.9375 5.2975 63.9375 3.9375 63.9375 C3.2775 66.2475 2.6175 68.5575 1.9375 70.9375 C0.28135343 71.31968767 -1.38707024 71.65145102 -3.0625 71.9375 C-5.41592865 69.58407135 -5.04421389 64.22736613 -5.46484375 61.0390625 C-5.8841891 57.78545186 -5.8841891 57.78545186 -8.0625 54.9375 C-10.04973268 54.23368843 -12.05027953 53.5663189 -14.0625 52.9375 C-17.03290115 49.96709885 -16.44915704 46.61533899 -16.5625 42.625 C-16.70749323 37.59714654 -16.92627093 33.57856238 -19.0625 28.9375 C-19.91421792 22.48877859 -17.72052167 18.9672798 -14.0625 13.9375 C-10.68787285 14.48473683 -8.98015 14.9924 -6.0625 16.9375 C-6.10890625 16.04546875 -6.1553125 15.1534375 -6.203125 14.234375 C-6.23921875 13.06390625 -6.2753125 11.8934375 -6.3125 10.6875 C-6.35890625 9.52734375 -6.4053125 8.3671875 -6.453125 7.171875 C-6.0625 3.9375 -6.0625 3.9375 -4.17578125 1.51171875 C-2.0625 -0.0625 -2.0625 -0.0625 0 0 Z " fill="#00B200" transform="translate(49.0625,22.0625)"/>
<path d="M0 0 C0.66 0.99 1.32 1.98 2 3 C4.02463255 3.65213292 4.02463255 3.65213292 6 4 C7 5 7 5 7.1875 7.4375 C7 10 7 10 5 12 C3.68 12 2.36 12 1 12 C0.67 11.34 0.34 10.68 0 10 C-0.66 10.66 -1.32 11.32 -2 12 C-4.4375 12.375 -4.4375 12.375 -7 12 C-8.8125 10 -8.8125 10 -10 8 C-9.443125 8.37125 -8.88625 8.7425 -8.3125 9.125 C-5.94283647 10.29515863 -5.94283647 10.29515863 -3.25 9.125 C-2.5075 8.75375 -1.765 8.3825 -1 8 C-0.67 5.36 -0.34 2.72 0 0 Z " fill="#004F00" transform="translate(67,77)"/>
<path d="M0 0 C1.2380014 3.57644848 0.74926071 6.33694766 0 10 C0.66 10 1.32 10 2 10 C2.33 11.98 2.66 13.96 3 16 C3.99 16 4.98 16 6 16 C6 17.32 6 18.64 6 20 C5.01 20 4.02 20 3 20 C3 19.34 3 18.68 3 18 C0.36 18 -2.28 18 -5 18 C-5 17.67 -5 17.34 -5 17 C-3.02 17 -1.04 17 1 17 C0.67 16.195625 0.34 15.39125 0 14.5625 C-1.29045294 9.96526141 -2.21264666 4.42529333 0 0 Z " fill="#006900" transform="translate(73,59)"/>
<path d="M0 0 C1.8125 0.875 1.8125 0.875 2.8125 2.875 C2.1525 2.875 1.4925 2.875 0.8125 2.875 C0.1525 3.535 -0.5075 4.195 -1.1875 4.875 C-1.8475 5.535 -2.5075 6.195 -3.1875 6.875 C-3.8475 6.875 -4.5075 6.875 -5.1875 6.875 C-5.1875 10.505 -5.1875 14.135 -5.1875 17.875 C-5.8475 17.545 -6.5075 17.215 -7.1875 16.875 C-7.12726506 14.79087093 -7.03841679 12.70755565 -6.9375 10.625 C-6.89109375 9.46484375 -6.8446875 8.3046875 -6.796875 7.109375 C-6.05185664 3.15504678 -4.47065913 -0.25546624 0 0 Z " fill="#006B00" transform="translate(49.1875,22.125)"/>
<path d="M0 0 C1.875 0.3125 1.875 0.3125 4 1 C6.46751239 4.70126859 6.30721156 6.62223532 6 11 C5 13.4375 5 13.4375 4 15 C2.67770811 12.35541621 2.90322806 10.32238699 2.9375 7.375 C2.94652344 6.37210938 2.95554687 5.36921875 2.96484375 4.3359375 C2.98224609 3.17964844 2.98224609 3.17964844 3 2 C2.01 2 1.02 2 0 2 C0 1.34 0 0.68 0 0 Z " fill="#006D00" transform="translate(71,44)"/>
<path d="M0 0 C0.99 0.495 0.99 0.495 2 1 C1.67 5.29 1.34 9.58 1 14 C1.99 14.33 2.98 14.66 4 15 C4 15.66 4 16.32 4 17 C3.01 17.33 2.02 17.66 1 18 C0 17 0 17 -0.09765625 13.18359375 C-0.09098089 11.60153318 -0.07901875 10.01948841 -0.0625 8.4375 C-0.05798828 7.63119141 -0.05347656 6.82488281 -0.04882812 5.99414062 C-0.03700518 3.99606244 -0.01906914 1.99802217 0 0 Z " fill="#008100" transform="translate(33,56)"/>
<path d="M0 0 C0.99 0.33 1.98 0.66 3 1 C3 2.65 3 4.3 3 6 C1.68 6 0.36 6 -1 6 C-0.67 4.02 -0.34 2.04 0 0 Z " fill="#00A300" transform="translate(70,82)"/>
<path d="M0 0 C0.556875 0.350625 1.11375 0.70125 1.6875 1.0625 C4.53886783 2.21845993 6.08517222 1.80967438 9 1 C8.67 1.99 8.34 2.98 8 4 C5.6875 4.25 5.6875 4.25 3 4 C1.1875 2 1.1875 2 0 0 Z " fill="#007600" transform="translate(57,85)"/>
<path d="M0 0 C1.32 0.33 2.64 0.66 4 1 C1.31158141 3.25245881 -0.64641875 4.88213958 -4 6 C-3.34 4.68 -2.68 3.36 -2 2 C-1.34 2 -0.68 2 0 2 C0 1.34 0 0.68 0 0 Z " fill="#008B00" transform="translate(48,23)"/>
</svg>
